{"glyphs":{"0":{"ha":917,"x_min":21,"x_max":894,"o":"m 894 468 q 855 267 894 369 q 732 71 815 164 q 720 61 728 67 q 706 53 713 56 q 662 30 685 40 q 617 7 639 19 q 599 -18 604 0 q 594 -47 594 -36 l 610 -139 q 606 -162 611 -151 q 588 -174 601 -174 q 574 -167 578 -174 q 570 -153 571 -161 q 571 -136 569 -144 q 572 -125 572 -128 l 572 -60 q 561 -24 572 -40 q 547 -6 550 -7 q 522 -3 536 -3 q 503 -3 508 -3 q 469 -7 478 -3 q 459 -21 461 -11 q 456 -47 457 -31 q 447 -86 456 -62 l 432 -86 q 416 -72 424 -86 q 408 -54 408 -57 q 403 -22 408 -37 q 389 6 399 -7 q 367 26 379 18 q 343 33 356 33 q 322 27 331 33 q 308 11 314 21 q 299 -8 301 1 q 296 -26 296 -18 l 308 -156 q 307 -169 308 -161 q 303 -185 306 -178 q 294 -199 300 -193 q 278 -204 288 -204 q 253 -186 257 -204 q 249 -158 249 -168 l 264 -14 q 262 2 264 -8 q 256 23 260 13 q 248 42 253 33 q 236 54 243 50 q 172 81 204 54 q 118 135 139 107 q 110 148 115 138 q 99 172 106 158 q 85 201 92 186 q 74 225 78 215 q 53 269 65 244 q 38 319 42 293 q 31 356 35 333 q 26 402 28 378 q 22 452 24 426 q 21 501 21 478 l 26 622 q 39 675 32 646 q 53 724 46 704 q 72 760 57 738 q 96 803 86 782 q 149 881 115 846 q 223 942 183 917 q 305 985 263 968 q 383 1007 347 1001 q 414 1008 393 1008 q 440 1008 435 1008 q 487 1008 465 1008 q 533 1003 508 1007 q 585 990 557 999 q 654 964 614 981 q 674 950 661 961 q 703 928 688 939 q 753 883 729 908 q 797 830 776 858 q 832 772 817 801 q 856 717 847 743 q 869 663 863 696 q 882 594 876 629 q 891 524 888 558 q 894 468 894 490 m 663 536 q 661 569 663 554 q 656 598 660 583 q 646 629 653 613 q 628 671 639 646 q 611 703 621 686 q 590 735 601 719 q 570 762 582 746 q 551 782 558 778 q 499 806 525 797 q 453 814 474 814 q 378 797 419 814 q 313 744 338 781 q 294 710 301 729 q 279 674 286 692 q 278 665 278 669 q 278 658 279 661 q 265 613 271 639 q 256 562 260 588 q 251 513 253 536 q 249 478 249 490 q 258 386 249 433 q 290 299 267 339 q 355 233 314 258 q 460 207 396 207 q 505 210 479 207 q 546 224 531 213 q 572 246 558 232 q 597 274 585 260 q 619 302 610 289 q 633 324 629 315 q 642 345 638 332 q 650 370 647 358 q 655 391 653 382 q 657 403 657 400 l 657 474 q 658 485 657 476 q 660 505 658 494 q 662 524 661 515 q 663 536 663 533 z "},"1":{"ha":917,"x_min":144,"x_max":771,"o":"m 771 890 q 753 851 771 871 q 718 814 735 831 q 706 708 714 761 l 703 239 q 706 226 706 232 q 706 213 706 219 q 706 177 706 197 q 708 143 707 157 q 714 110 710 129 q 718 88 718 92 l 718 40 l 715 40 q 713 43 713 40 q 683 -10 697 13 q 668 -64 668 -32 l 681 -189 q 676 -212 681 -196 q 657 -228 671 -228 q 644 -222 649 -228 q 636 -209 639 -217 q 633 -195 633 -201 q 632 -186 632 -189 l 642 -76 q 634 -44 642 -64 q 607 -24 626 -24 q 582 -33 592 -24 q 567 -54 572 -42 q 560 -79 563 -67 q 556 -100 557 -92 q 549 -114 554 -104 q 535 -126 544 -124 q 520 -101 519 -118 q 518 -69 521 -83 q 504 -49 513 -53 q 492 -42 496 -46 q 477 -30 485 -36 q 467 -15 469 -24 q 463 -2 464 -11 q 463 13 463 7 q 468 31 463 17 q 481 57 474 46 q 483 68 483 63 q 483 79 483 74 l 485 81 q 486 83 486 82 q 488 85 486 83 q 496 114 490 96 q 507 151 501 132 q 517 191 513 171 q 521 226 521 211 q 519 251 521 229 q 517 298 518 272 q 515 345 517 324 q 514 369 514 367 l 514 463 l 517 700 q 515 755 514 725 q 506 804 515 785 q 485 819 499 815 q 460 828 471 822 l 226 676 q 217 672 217 676 q 177 735 192 696 q 156 808 163 774 q 151 818 153 813 q 149 829 149 824 q 149 837 147 833 q 149 844 150 840 q 147 853 149 847 q 144 863 144 858 l 150 969 q 163 972 157 969 q 172 975 168 975 q 187 969 176 975 q 204 963 197 964 q 230 960 215 960 q 250 960 244 960 l 408 960 q 429 963 413 960 q 454 968 446 965 q 474 972 463 969 q 494 976 485 975 q 542 981 514 978 q 595 985 569 983 q 640 990 621 988 q 661 992 658 992 q 680 985 668 992 q 703 972 692 979 q 719 963 710 968 q 735 953 729 958 q 753 936 744 946 q 765 915 761 926 q 771 890 771 901 z "},"2":{"ha":917,"x_min":89,"x_max":826,"o":"m 826 682 q 819 639 826 658 q 801 586 813 619 q 742 476 782 528 q 647 382 703 425 q 576 328 614 356 q 490 263 539 300 q 453 235 474 250 q 413 204 432 221 q 453 201 429 201 q 500 203 476 200 q 507 204 503 203 q 515 206 511 206 q 551 207 532 207 q 601 206 569 207 q 682 203 632 206 q 811 199 732 201 q 818 194 814 197 q 822 186 822 190 l 822 26 q 809 13 822 17 q 780 6 796 8 q 750 4 764 4 q 735 4 736 4 q 708 -22 715 -7 q 697 -43 700 -36 q 688 -49 694 -46 q 676 -54 682 -51 q 660 -85 661 -62 q 657 -128 660 -108 q 642 -142 656 -142 q 629 -140 633 -142 q 618 -126 625 -139 q 608 -98 611 -115 q 601 -65 604 -81 q 578 -36 597 -49 q 544 -24 560 -24 q 522 -31 531 -24 q 509 -48 514 -37 q 503 -69 504 -58 q 501 -89 501 -81 q 503 -110 501 -92 q 506 -150 504 -128 q 510 -191 508 -172 q 511 -212 511 -210 q 505 -245 511 -229 q 479 -261 499 -261 q 461 -255 467 -261 q 453 -240 456 -249 q 452 -224 451 -232 q 453 -211 453 -215 l 465 -74 q 460 -33 465 -54 q 439 -1 454 -12 q 421 0 433 0 q 388 -14 396 0 q 378 -44 381 -28 q 374 -75 376 -61 q 354 -89 371 -89 q 335 -79 339 -89 q 331 -58 332 -69 q 325 -37 329 -47 q 303 -28 321 -28 q 283 -36 290 -28 q 269 -54 275 -44 q 258 -72 264 -64 q 242 -81 251 -81 q 233 -78 238 -81 q 224 -76 228 -76 q 210 -91 214 -76 q 206 -108 207 -106 q 204 -142 204 -124 q 206 -178 204 -161 q 209 -190 207 -183 q 210 -201 211 -196 q 198 -224 207 -212 q 178 -235 189 -235 q 157 -222 163 -235 q 151 -192 151 -208 q 152 -163 150 -176 q 154 -149 154 -150 q 155 -129 154 -140 q 154 -108 156 -118 q 151 -92 153 -100 q 146 -78 149 -85 q 139 -50 143 -64 q 132 -22 135 -36 q 115 -8 124 -18 q 94 14 107 1 q 92 26 94 19 q 89 36 89 32 l 89 154 q 96 185 89 165 q 108 208 103 204 q 153 247 126 229 q 203 285 179 265 q 270 344 235 311 q 353 410 306 378 q 381 431 364 417 q 411 456 397 444 q 425 468 417 461 q 440 478 433 475 q 483 513 460 489 q 528 563 507 536 q 563 618 549 590 q 576 667 576 646 q 574 699 576 681 q 567 737 572 718 q 550 772 561 756 q 522 794 539 788 q 500 797 514 797 q 481 797 486 797 q 453 797 461 797 q 438 795 446 797 q 417 789 431 793 q 376 776 404 785 q 353 765 367 774 q 324 743 339 756 q 297 716 310 731 q 276 688 285 701 q 264 681 274 683 q 250 679 254 679 q 232 691 247 679 q 199 718 217 703 q 165 748 182 733 q 140 767 147 763 q 128 774 138 769 q 115 783 119 778 q 111 792 113 786 q 107 801 110 797 q 124 833 114 815 q 146 863 135 851 q 249 948 197 915 q 356 992 300 981 q 399 999 385 996 q 421 1002 413 1001 q 438 1003 429 1003 q 464 1003 446 1003 q 549 997 497 1003 q 654 971 601 990 q 673 960 664 968 q 692 944 682 951 q 755 888 729 921 q 797 820 781 856 q 819 749 813 785 q 826 682 826 713 z "},"3":{"ha":917,"x_min":81,"x_max":836,"o":"m 836 201 q 833 183 836 199 q 826 158 831 167 q 808 115 819 139 q 783 68 797 92 q 750 24 768 44 q 711 -7 732 4 q 703 -19 707 -10 q 698 -42 700 -29 q 695 -65 696 -54 q 694 -82 694 -76 l 704 -179 q 700 -208 704 -190 q 681 -226 696 -226 q 658 -210 664 -226 q 651 -185 651 -194 q 661 -135 651 -168 q 671 -56 671 -103 q 671 -31 671 -44 q 660 -7 671 -17 q 644 -6 653 -7 q 628 -8 635 -6 q 597 -24 615 -12 q 563 -46 578 -35 q 547 -67 550 -56 q 542 -92 543 -79 q 540 -118 542 -106 q 529 -140 539 -131 q 519 -140 525 -142 q 508 -135 513 -139 q 489 -97 493 -121 q 479 -54 485 -72 q 454 -26 474 -39 q 421 -12 435 -12 q 398 -21 413 -12 q 376 -47 383 -29 q 374 -67 374 -54 q 374 -83 374 -79 l 383 -211 q 378 -248 383 -231 q 350 -265 374 -265 q 331 -259 338 -265 q 323 -244 325 -253 q 321 -227 321 -236 q 321 -212 321 -218 l 336 -61 q 333 -40 336 -53 q 325 -14 331 -26 q 310 8 319 -1 q 289 18 301 18 q 273 15 285 18 q 253 8 261 13 q 252 3 251 6 q 253 -1 253 1 q 247 -16 250 -8 q 243 -31 243 -24 q 240 -53 242 -42 q 233 -75 239 -64 q 214 -83 228 -83 q 201 -81 207 -83 q 192 -69 194 -79 q 188 -11 189 -42 q 183 47 188 19 q 160 83 181 69 q 122 103 140 97 q 99 120 114 104 q 81 149 85 136 q 110 187 94 172 q 142 214 125 201 q 174 240 158 226 q 207 278 190 254 q 217 285 210 282 q 228 289 224 289 q 245 279 232 289 q 272 258 258 269 q 297 237 286 247 q 310 226 308 226 q 375 194 347 207 q 446 182 403 182 q 504 187 472 182 q 564 211 536 192 q 574 225 569 215 q 581 247 578 235 q 586 270 585 258 q 588 290 588 282 q 553 369 588 339 q 456 403 518 399 q 438 406 449 403 q 422 410 428 410 l 335 410 q 315 426 324 410 q 302 462 307 442 q 294 501 297 482 q 292 525 292 519 q 288 536 292 529 q 285 549 285 543 q 298 576 285 567 q 325 601 311 586 q 380 660 351 631 q 433 722 408 690 q 459 751 444 735 q 490 785 474 768 l 310 786 l 254 778 l 147 778 q 140 786 144 781 q 136 794 136 792 l 133 943 q 137 967 133 957 q 156 978 140 978 l 354 975 l 410 983 l 771 983 q 783 980 776 983 q 794 972 789 976 l 794 810 q 731 739 763 778 q 661 663 699 700 q 643 647 656 657 q 616 626 631 638 q 587 602 601 615 q 560 575 572 589 q 577 569 567 572 q 597 564 588 567 q 667 542 636 557 q 729 499 697 526 q 792 416 769 465 q 821 328 814 367 q 830 295 824 317 q 836 269 836 274 l 836 201 z "},"4":{"ha":917,"x_min":32,"x_max":885,"o":"m 885 236 q 874 228 881 232 q 863 225 868 225 l 756 225 l 756 44 q 758 33 756 40 q 757 19 760 25 q 744 0 754 13 q 732 -24 735 -12 q 728 -47 728 -35 q 725 -69 728 -58 q 715 -83 722 -81 q 706 -85 708 -85 q 694 -78 697 -85 q 690 -62 692 -71 q 690 -44 689 -53 q 689 -33 690 -36 q 688 -26 689 -31 q 682 -22 688 -22 l 674 -22 q 665 -37 669 -29 q 658 -57 661 -46 q 651 -99 653 -82 q 650 -137 649 -117 q 652 -153 650 -140 q 653 -181 654 -167 q 649 -208 653 -196 q 632 -219 644 -219 q 615 -207 619 -219 q 609 -179 610 -194 q 610 -151 608 -164 q 611 -135 611 -137 q 611 -120 611 -132 q 610 -96 611 -108 q 605 -73 608 -83 q 594 -62 601 -62 q 588 -64 590 -62 q 582 -65 586 -65 q 571 -61 575 -65 q 562 -45 565 -54 q 553 -26 558 -36 q 549 -21 553 -24 q 542 -14 544 -18 q 535 14 538 -3 q 532 35 532 31 l 532 211 l 267 211 l 167 228 l 72 228 q 39 286 46 251 q 32 357 32 321 q 42 395 32 375 q 69 435 53 415 q 102 473 85 454 q 135 508 119 492 q 265 656 200 583 q 392 801 329 729 q 417 828 403 813 q 446 858 431 843 q 469 889 458 874 q 490 913 474 894 q 524 953 506 932 q 559 990 543 974 q 579 1006 575 1006 q 596 1003 585 1006 q 611 1001 607 1001 l 757 1001 q 758 995 758 1001 q 760 985 758 989 q 760 970 761 979 q 758 957 758 961 l 758 807 q 759 797 758 804 q 760 781 760 790 q 760 765 760 772 q 761 754 761 757 l 761 497 l 754 426 q 754 420 754 422 q 758 415 754 418 l 865 415 q 876 410 871 415 q 885 401 881 404 l 885 236 m 540 418 l 540 663 q 424 547 476 606 q 318 425 371 488 q 342 426 331 426 q 365 424 354 425 q 393 419 379 422 q 411 418 407 417 l 540 418 z "},"5":{"ha":917,"x_min":88,"x_max":829,"o":"m 828 354 q 822 277 828 317 q 801 199 817 238 q 759 122 786 160 q 689 50 732 85 q 669 29 678 42 q 651 6 661 17 q 635 -4 646 0 q 618 -14 625 -8 q 601 -34 604 -22 q 598 -58 599 -46 q 596 -83 597 -71 q 585 -108 594 -96 q 564 -103 575 -111 q 544 -65 549 -89 q 533 -22 540 -40 q 510 7 529 -7 q 476 21 490 21 q 453 13 467 21 q 432 -14 439 4 q 429 -34 429 -22 q 429 -50 429 -46 l 439 -179 q 434 -215 439 -199 q 404 -232 429 -232 q 386 -226 392 -232 q 378 -210 381 -219 q 376 -193 376 -201 q 376 -181 376 -185 l 389 -46 q 378 -3 389 -24 q 340 22 368 17 q 325 10 335 14 q 308 7 315 7 q 303 3 306 6 q 299 -4 300 0 q 295 -19 296 -11 q 292 -33 294 -26 q 285 -45 290 -40 q 269 -50 281 -50 q 253 -44 257 -50 q 247 -31 249 -39 q 244 -14 246 -22 q 235 -1 242 -6 q 236 3 235 0 q 239 10 238 7 q 207 44 229 33 q 167 69 185 56 q 126 99 149 82 q 88 132 103 117 q 110 163 96 144 q 142 203 125 182 q 176 244 158 224 q 207 282 193 265 q 217 290 210 285 q 228 296 224 296 q 246 289 233 296 q 271 273 258 282 q 293 256 283 264 q 304 247 303 249 q 328 231 315 240 q 353 218 340 221 q 379 210 363 214 q 414 202 396 206 q 450 197 432 199 q 482 194 468 194 q 497 195 486 194 q 515 197 508 196 q 532 203 522 200 q 550 213 542 207 q 563 222 557 215 q 572 235 568 228 q 579 246 574 236 q 591 268 585 256 q 603 293 597 281 q 608 314 608 306 q 586 382 608 349 q 521 439 564 415 q 493 445 510 446 q 463 444 476 444 q 394 440 431 444 q 325 428 357 435 q 319 424 322 428 q 314 418 317 419 q 297 412 307 414 q 282 410 288 410 q 257 415 271 410 q 230 431 243 421 q 204 451 217 440 q 186 475 192 463 q 169 487 183 479 q 144 506 154 494 q 140 518 140 510 q 139 532 139 526 l 139 728 q 142 752 139 729 q 149 806 144 775 q 158 874 153 838 q 167 939 163 910 q 173 958 168 946 q 182 981 178 969 q 199 985 189 983 q 214 988 210 988 q 225 986 219 988 q 236 985 231 985 l 236 950 l 267 950 l 267 928 l 236 928 l 236 910 l 267 910 l 267 886 l 236 886 l 236 869 l 267 869 l 267 847 l 236 847 l 236 831 l 242 826 l 246 826 q 253 827 249 826 q 267 828 258 828 l 267 804 l 236 804 l 236 786 l 267 786 l 267 764 l 236 764 l 236 746 l 267 746 l 267 724 l 236 724 l 236 706 l 267 706 l 267 683 l 236 683 l 236 664 l 267 664 q 267 655 267 660 q 269 644 267 650 l 308 644 l 310 646 l 310 660 q 293 665 304 667 q 278 665 282 663 l 278 685 l 310 685 l 310 700 l 306 704 l 304 703 l 278 706 l 278 726 q 311 726 293 724 l 311 744 l 278 744 l 278 765 l 308 765 l 310 767 l 310 782 q 293 787 304 789 q 278 786 282 785 l 278 806 q 306 806 289 810 l 310 810 l 310 826 l 278 826 l 278 849 q 311 849 293 844 l 311 867 l 278 867 l 278 889 q 294 888 282 890 q 310 893 307 886 l 310 906 q 293 910 304 913 q 278 910 282 908 l 278 929 l 310 929 l 310 946 l 306 950 l 304 947 l 278 950 l 278 969 q 285 970 279 971 q 298 969 292 969 q 308 972 304 969 q 311 982 313 974 l 785 979 q 781 972 778 975 q 783 969 782 969 q 785 964 785 968 l 785 817 q 782 806 785 813 q 779 793 779 800 q 774 790 778 793 q 765 788 771 788 l 385 788 q 379 759 382 781 q 373 713 376 738 q 367 667 369 688 q 365 640 365 646 l 365 633 l 531 649 q 610 640 572 649 q 682 608 647 631 q 749 549 717 586 q 810 457 781 513 q 819 434 813 449 q 826 408 825 419 q 828 378 829 397 q 828 354 828 358 m 310 621 q 294 635 310 633 q 272 636 279 636 q 251 635 264 636 q 238 619 238 635 q 241 610 238 615 q 249 604 244 606 l 299 604 q 310 621 310 613 m 321 493 q 317 517 321 497 q 314 550 314 536 q 311 566 313 558 q 307 578 310 574 q 291 588 300 588 q 274 589 282 589 q 253 588 263 589 q 238 575 243 586 q 231 555 233 568 q 227 528 229 542 q 224 502 225 514 q 224 489 224 490 q 235 470 224 478 q 247 460 246 463 l 300 460 q 306 467 303 465 q 313 472 310 469 q 319 478 317 474 q 321 493 321 482 m 294 544 q 274 521 294 521 q 255 529 258 521 q 251 544 251 538 q 256 560 251 551 q 272 568 261 568 q 289 560 283 568 q 294 544 294 551 z "},"6":{"ha":917,"x_min":72,"x_max":844,"o":"m 844 326 q 825 211 844 274 q 761 100 806 149 q 756 99 760 99 q 747 99 751 99 q 724 67 736 85 q 697 36 711 49 q 685 30 694 33 q 672 22 676 26 q 663 8 667 18 q 658 -12 660 -1 q 654 -35 656 -24 q 653 -54 653 -46 l 663 -151 q 658 -181 663 -162 q 639 -199 654 -199 q 616 -183 622 -199 q 610 -157 610 -167 q 619 -108 610 -142 q 629 -28 629 -75 q 629 -3 629 -17 q 618 21 629 11 q 602 22 611 21 q 586 19 593 22 q 555 4 574 15 q 521 -18 536 -7 q 505 -40 508 -28 q 501 -65 501 -51 q 499 -91 500 -78 q 488 -114 497 -104 q 477 -112 483 -114 q 467 -107 471 -111 q 447 -69 451 -93 q 438 -26 443 -44 q 413 2 432 -11 q 379 15 393 15 q 356 7 371 15 q 335 -19 342 -1 q 332 -39 332 -26 q 332 -56 332 -51 l 342 -185 q 337 -221 342 -204 q 308 -237 332 -237 q 290 -231 296 -237 q 281 -217 283 -225 q 279 -199 279 -208 q 279 -185 279 -190 l 294 -33 q 290 -4 294 -25 q 278 24 286 17 q 265 31 271 29 q 251 36 258 33 q 234 50 243 42 q 214 65 225 58 q 170 94 197 76 q 133 135 143 113 q 110 189 124 156 q 88 254 96 222 q 82 278 85 264 q 77 306 79 292 q 74 330 75 319 q 72 343 72 340 l 72 567 q 74 583 72 568 q 79 616 76 597 q 85 653 82 635 q 93 683 89 672 q 106 717 96 697 q 124 754 115 738 q 135 780 129 765 q 146 803 140 794 q 170 840 157 821 q 199 876 183 860 q 244 919 221 899 q 294 958 268 940 q 314 967 300 963 q 338 974 328 971 q 363 984 347 976 q 393 994 379 992 q 417 999 403 996 q 445 1003 432 1001 q 469 1007 458 1006 q 482 1008 479 1008 q 502 1006 483 1008 q 547 1001 521 1004 q 603 994 574 999 q 657 986 633 990 q 669 983 661 986 q 682 976 676 979 q 698 964 689 971 q 715 953 707 957 q 732 946 717 951 q 765 931 747 940 q 796 912 782 922 q 810 890 810 901 q 795 857 810 876 q 772 822 781 838 q 743 778 760 801 q 711 731 726 754 q 703 727 708 728 q 694 722 697 726 q 655 750 679 736 q 603 775 631 764 q 549 794 576 786 q 503 801 522 801 q 426 785 461 801 q 364 741 390 768 q 323 678 338 714 q 308 606 308 643 l 308 593 q 357 605 332 592 q 406 625 382 618 q 448 634 425 632 q 503 636 471 636 q 581 630 539 636 q 665 607 624 624 q 745 561 707 590 q 813 485 783 532 q 823 458 819 474 q 829 426 826 442 q 841 372 838 399 q 844 326 844 346 m 629 311 q 622 346 629 329 q 610 378 615 363 q 585 416 603 400 q 546 442 568 432 q 501 456 524 451 q 461 460 479 460 q 421 456 443 460 q 376 442 399 451 q 335 415 354 432 q 307 371 317 397 q 306 351 304 363 q 307 335 307 339 q 323 254 307 293 q 396 194 339 215 q 447 178 431 181 q 482 176 463 176 q 499 176 488 176 q 518 178 511 176 q 569 198 547 183 q 603 232 590 213 q 623 272 617 251 q 629 311 629 293 z "},"7":{"ha":917,"x_min":100,"x_max":817,"o":"m 815 932 q 815 916 815 929 q 813 885 814 903 q 809 849 811 868 q 804 817 807 831 q 789 791 801 810 q 767 756 776 772 q 745 714 757 738 q 721 665 733 690 q 696 616 708 640 q 672 571 683 592 q 597 422 633 501 q 525 268 561 343 q 490 199 514 244 q 439 94 465 153 q 423 51 432 79 q 399 6 414 22 q 368 -32 378 -19 q 354 -53 358 -44 q 350 -69 350 -61 q 350 -92 350 -76 l 360 -221 q 355 -257 360 -240 q 326 -274 350 -274 q 308 -267 314 -274 q 299 -251 301 -260 q 297 -234 297 -243 q 297 -221 297 -225 l 310 -89 q 310 -76 310 -85 q 307 -62 310 -68 q 295 -56 301 -60 q 285 -49 289 -53 q 275 -33 279 -42 q 267 -18 271 -25 q 263 -17 264 -18 q 258 -15 263 -15 q 237 -22 251 -15 q 219 -40 222 -28 q 215 -74 217 -56 q 190 -92 213 -92 q 174 -85 181 -92 q 167 -65 167 -78 q 165 -43 168 -53 q 156 -27 163 -36 q 143 -10 149 -18 q 138 15 138 1 q 156 77 138 43 q 189 143 174 111 q 203 163 193 151 q 221 183 214 174 q 242 217 232 200 q 260 251 251 235 q 267 264 263 257 q 274 276 271 271 q 309 340 286 304 q 347 400 332 376 q 381 462 365 429 q 414 526 397 494 q 478 655 447 592 q 553 783 508 718 l 386 792 l 117 782 q 109 786 114 782 q 100 793 104 790 l 100 960 q 103 969 100 965 q 106 976 106 974 q 119 978 111 976 q 133 982 126 979 l 597 988 q 607 985 601 988 q 619 982 613 983 q 643 980 629 981 q 670 978 657 979 q 693 977 683 978 q 706 976 703 976 q 720 977 708 976 q 747 979 732 978 q 773 981 761 981 q 788 982 785 982 q 808 976 801 982 q 815 963 814 971 q 816 947 817 956 q 815 932 815 939 z "},"8":{"ha":917,"x_min":71,"x_max":846,"o":"m 846 307 q 840 263 846 290 q 824 207 833 235 q 802 156 814 179 q 781 125 790 133 q 780 120 779 122 q 781 117 781 118 q 765 103 776 111 q 750 81 753 96 q 747 23 747 54 q 742 -36 746 -8 q 731 -47 739 -44 q 719 -50 724 -50 q 701 -42 707 -50 q 694 -24 696 -35 q 690 -3 692 -14 q 688 14 689 7 q 670 40 685 29 q 644 51 656 51 q 623 42 632 51 q 608 19 614 32 q 601 -8 603 6 q 599 -28 599 -21 l 614 -181 q 610 -213 614 -194 q 585 -232 607 -232 q 563 -226 569 -232 q 553 -211 556 -219 q 550 -194 550 -203 q 550 -179 550 -185 l 560 -50 q 558 -28 560 -40 q 551 -5 557 -15 q 537 13 546 6 q 513 21 528 21 q 506 19 508 21 q 499 17 503 18 q 474 3 483 14 q 458 -20 464 -7 q 449 -48 451 -33 q 443 -72 446 -62 q 431 -97 440 -85 q 419 -106 428 -100 q 404 -108 411 -111 q 392 -83 393 -97 q 391 -53 392 -68 q 384 -26 390 -39 q 357 -6 378 -14 q 349 1 354 -4 q 338 22 346 17 q 319 28 331 28 q 311 28 319 28 q 292 26 303 28 q 272 24 282 25 q 257 19 261 22 q 254 -3 254 11 q 254 -21 254 -17 q 256 -42 254 -25 q 260 -79 257 -60 q 266 -105 263 -90 q 269 -125 269 -119 q 264 -149 269 -139 q 247 -158 258 -158 q 231 -147 235 -158 q 226 -121 226 -135 q 228 -94 226 -107 q 231 -82 231 -82 q 234 -44 232 -67 q 231 -1 236 -21 q 216 28 225 22 q 200 42 207 35 q 193 51 196 46 q 182 63 190 57 q 124 110 146 86 q 91 158 103 133 q 75 208 79 183 q 71 261 71 233 q 76 327 71 296 q 95 389 81 358 q 135 449 110 419 q 204 507 161 478 q 163 560 181 531 q 133 613 144 589 q 117 651 122 636 q 109 679 111 667 q 108 703 107 692 q 108 732 108 715 q 110 791 108 764 q 122 844 111 818 q 155 897 132 871 q 222 951 178 922 q 264 971 238 963 q 311 986 290 979 q 339 996 322 989 q 363 1003 356 1003 l 496 1003 q 519 1000 506 1003 q 546 994 532 997 q 570 988 560 990 q 585 983 581 985 q 658 953 622 971 q 736 896 694 935 q 756 868 747 886 q 771 840 765 850 q 792 789 786 814 q 797 735 797 764 q 778 628 797 679 q 701 517 760 578 q 808 421 771 479 q 846 307 846 363 m 583 706 q 581 733 583 715 q 572 758 579 751 q 533 792 549 781 q 503 808 517 803 q 477 813 490 813 q 446 814 464 814 q 420 813 440 814 q 385 808 400 813 q 376 801 379 806 q 369 794 374 797 q 349 776 357 789 q 334 749 340 764 q 325 721 328 735 q 322 700 322 707 q 334 658 322 676 q 364 625 346 639 q 405 604 382 611 q 449 597 428 597 q 490 602 467 597 q 535 619 514 607 q 569 653 556 632 q 583 706 583 674 m 624 299 q 606 356 624 332 q 563 393 589 379 q 507 413 536 407 q 454 419 478 419 q 442 419 451 419 q 422 417 433 418 q 398 413 410 415 q 379 408 386 411 q 319 360 339 392 q 300 292 300 328 q 300 272 300 279 q 303 258 300 265 q 310 243 306 251 q 326 221 315 235 q 337 212 331 215 q 346 206 343 208 q 403 183 378 192 q 453 175 429 175 q 503 181 474 175 q 560 202 533 188 q 605 240 586 217 q 624 299 624 264 z "},"9":{"ha":917,"x_min":61,"x_max":856,"o":"m 854 524 q 855 487 854 500 q 855 458 856 474 q 851 420 854 443 q 838 356 847 397 q 831 336 836 349 q 819 309 826 324 q 806 280 813 294 q 794 254 799 265 q 788 242 792 250 q 782 226 785 233 q 767 192 775 211 q 749 158 760 172 q 716 123 736 143 q 673 84 696 103 q 627 50 650 65 q 586 28 604 35 q 569 18 578 25 q 554 4 560 11 q 542 -22 546 -6 q 532 -51 538 -37 q 529 -54 531 -54 q 526 -57 528 -54 q 522 -83 524 -68 q 521 -104 521 -99 l 521 -167 q 511 -178 521 -175 q 500 -181 501 -181 q 488 -170 489 -181 q 488 -144 486 -160 q 493 -110 490 -128 q 493 -79 496 -93 q 490 -67 493 -74 q 483 -54 486 -61 q 478 -28 481 -39 q 460 -17 476 -17 q 437 -26 442 -17 q 431 -48 432 -36 q 428 -69 431 -60 q 414 -79 426 -79 l 404 -79 q 390 -65 393 -79 q 385 -33 388 -50 q 373 -1 382 -15 q 340 14 364 14 q 315 3 324 14 q 303 -21 307 -7 q 299 -48 300 -35 q 299 -65 299 -61 l 311 -204 q 307 -232 311 -215 q 283 -249 303 -249 q 264 -243 271 -249 q 255 -229 257 -237 q 253 -212 253 -221 q 253 -197 253 -203 l 263 -74 q 260 -54 263 -65 q 250 -32 258 -43 q 243 -24 247 -28 q 239 -18 239 -21 q 236 -3 238 -11 q 231 11 235 4 q 208 26 215 17 q 194 43 200 35 q 183 58 189 51 q 164 64 176 64 q 156 63 160 64 q 149 61 153 61 q 140 65 146 61 q 124 76 133 69 q 106 89 115 82 q 92 100 97 96 q 89 111 89 103 q 94 130 89 115 q 104 151 100 144 q 141 203 122 178 q 175 253 160 229 q 190 265 181 260 q 206 271 199 271 q 217 263 208 271 q 232 251 225 254 q 301 224 279 235 q 336 208 324 214 q 360 201 349 203 q 400 199 372 199 q 416 198 404 199 q 436 199 428 197 q 476 206 454 200 q 516 224 489 210 q 563 268 543 238 q 589 320 579 292 q 610 376 599 349 l 607 400 q 508 353 554 365 q 414 342 463 342 q 330 348 368 342 q 258 367 292 354 q 194 399 225 381 q 132 443 164 418 q 122 458 128 447 q 111 482 117 469 q 101 506 106 494 q 93 525 96 518 q 72 569 79 551 q 63 603 65 588 q 61 633 61 618 q 61 669 61 649 q 65 734 61 704 q 82 794 68 764 q 123 858 96 824 q 197 936 150 892 q 225 951 203 940 q 261 969 247 963 q 303 989 285 981 q 343 999 322 997 q 424 1001 386 1001 q 468 1001 463 1001 q 478 1002 469 1001 q 498 1003 488 1003 q 519 1002 508 1003 q 538 1000 531 1001 q 600 981 567 994 q 666 944 633 967 q 728 892 699 922 q 778 826 757 863 q 799 778 789 807 q 817 731 810 750 q 835 676 828 699 q 846 630 842 653 q 852 582 850 607 q 854 524 854 557 m 611 681 q 610 711 611 697 q 600 738 610 725 q 532 795 574 774 q 446 817 490 817 q 360 799 397 817 q 299 733 322 782 q 293 698 293 721 q 293 671 293 675 q 299 619 293 643 q 320 576 306 594 q 360 547 335 558 q 424 533 385 536 q 456 529 435 532 q 482 526 478 526 q 553 547 518 526 q 603 608 588 568 q 608 628 606 617 q 610 650 610 639 q 611 669 611 661 q 611 681 611 678 z "},"\u0000":{"ha":0,"x_min":0,"x_max":0,"o":""},"\r":{"ha":0,"x_min":0,"x_max":0,"o":""}," ":{"ha":476,"x_min":0,"x_max":0,"o":""},",":{"ha":297,"x_min":42,"x_max":226,"o":"m 226 54 q 218 40 226 50 q 207 21 210 29 q 202 3 204 14 q 197 -18 200 -8 q 192 -25 196 -21 q 188 -35 189 -29 q 158 -92 181 -67 q 110 -118 136 -118 q 84 -107 97 -118 q 71 -81 71 -96 q 74 -65 71 -71 q 84 -54 78 -60 q 97 -40 90 -49 q 113 -18 104 -32 q 96 -12 106 -15 q 76 -3 86 -8 q 60 10 67 1 q 54 31 54 18 q 44 88 47 56 q 54 149 42 121 q 64 165 54 158 q 85 175 74 171 q 108 181 97 179 q 124 182 119 182 l 156 179 q 178 174 165 176 q 197 164 190 171 q 217 133 208 153 q 226 108 226 114 l 226 54 z "},"-":{"ha":524,"x_min":57,"x_max":494,"o":"m 494 419 q 492 414 494 415 q 490 408 489 413 l 494 404 l 154 404 l 85 396 q 67 397 78 396 q 57 413 57 399 l 57 600 q 60 604 60 603 q 64 607 61 606 q 87 609 74 607 q 113 613 100 611 q 137 615 126 614 q 150 617 147 617 l 263 617 q 275 617 265 617 q 297 619 285 618 q 318 620 308 619 q 331 621 328 621 q 342 621 332 621 q 366 621 353 621 q 394 620 379 621 q 419 618 408 619 q 450 613 435 615 q 481 610 465 611 q 488 603 482 611 q 494 590 494 594 l 494 419 z "},".":{"ha":311,"x_min":42,"x_max":242,"o":"m 242 50 q 233 28 242 39 q 210 7 224 17 q 184 -10 197 -3 q 163 -18 171 -17 q 153 -20 157 -19 q 144 -21 150 -21 q 122 -16 140 -21 q 93 -6 104 -11 q 56 31 69 4 q 42 75 42 58 l 44 103 q 56 135 46 122 q 79 157 65 149 q 108 169 93 165 q 136 174 124 174 l 168 171 q 218 138 200 167 q 239 83 236 108 l 242 50 z "},"A":{"ha":1046,"x_min":22,"x_max":1067,"o":"m 1067 -1 q 1053 -15 1060 -4 q 1038 -29 1047 -25 q 1006 -42 1021 -39 q 976 -47 992 -44 q 973 -56 975 -49 q 969 -70 971 -62 q 967 -85 968 -78 q 965 -93 965 -92 l 981 -237 q 979 -249 981 -242 q 975 -265 978 -257 q 967 -279 972 -274 q 951 -285 961 -285 q 933 -278 940 -285 q 924 -264 926 -272 q 920 -247 921 -256 q 919 -236 919 -239 l 932 -108 q 927 -81 932 -100 q 903 -51 922 -62 q 889 -60 896 -56 q 876 -64 882 -64 q 858 -56 865 -64 q 847 -38 851 -49 q 839 -17 842 -28 q 833 -1 836 -7 q 813 42 824 14 q 793 100 801 71 q 785 121 790 110 q 775 143 779 132 q 762 174 768 158 q 746 204 756 189 l 363 210 q 357 201 360 207 q 333 140 344 171 q 307 78 322 110 q 297 63 304 71 q 285 47 290 54 q 274 23 278 36 q 265 -1 271 10 q 261 -8 265 -4 q 254 -14 257 -11 q 239 -51 247 -31 q 231 -83 231 -71 l 244 -210 q 240 -233 244 -217 q 221 -250 236 -250 q 208 -244 213 -250 q 200 -231 203 -239 q 197 -217 197 -224 q 196 -207 196 -210 l 206 -97 q 197 -63 206 -83 q 169 -43 189 -43 q 144 -52 154 -43 q 130 -74 135 -61 q 122 -99 125 -86 q 118 -121 119 -112 q 113 -135 117 -125 q 97 -147 108 -144 q 83 -122 82 -139 q 81 -90 83 -104 q 67 -70 75 -74 q 54 -62 60 -67 q 34 -44 46 -57 q 22 -17 22 -31 q 28 5 22 -12 q 42 38 35 22 q 72 106 57 72 q 103 175 88 140 q 137 248 118 207 q 175 331 156 289 q 203 392 188 358 q 233 458 218 425 q 254 504 242 476 q 276 551 267 532 q 318 646 296 594 q 363 749 340 697 q 408 849 386 800 q 451 935 431 897 q 467 950 457 944 q 488 957 476 956 q 510 958 499 958 q 531 958 522 958 q 597 956 563 958 q 658 936 631 954 q 683 911 674 926 q 700 879 693 896 q 712 846 707 863 q 724 817 717 829 q 767 716 747 768 q 807 615 788 664 q 935 308 869 463 q 1067 -1 1000 154 m 689 365 q 649 458 669 411 q 610 550 629 504 q 599 561 603 554 q 592 577 594 568 q 586 596 589 586 q 579 615 583 606 q 571 622 576 619 q 561 624 565 624 q 551 622 556 624 q 543 621 546 621 q 481 499 515 561 q 422 378 446 436 q 557 365 493 363 q 689 365 621 367 z "},"B":{"ha":822,"x_min":36,"x_max":836,"o":"m 836 246 q 809 142 836 194 q 722 47 782 90 q 708 29 715 43 q 697 4 700 15 q 687 -40 694 -18 q 676 -82 679 -62 q 676 -105 674 -93 q 680 -129 678 -117 q 683 -154 682 -142 q 679 -179 683 -167 q 671 -191 678 -183 q 656 -199 664 -199 q 641 -192 650 -199 q 629 -176 632 -185 q 626 -151 622 -157 q 631 -137 631 -146 l 631 -86 q 626 -66 631 -82 q 614 -50 621 -50 q 604 -52 610 -50 q 594 -54 599 -54 q 576 -40 583 -54 q 564 -19 568 -26 l 561 -22 q 558 -49 560 -33 q 556 -78 557 -64 q 553 -102 554 -92 q 553 -114 553 -112 q 554 -134 553 -117 q 558 -172 556 -151 q 561 -210 560 -193 q 563 -231 563 -228 q 559 -252 563 -240 q 540 -264 556 -264 q 524 -250 528 -264 q 522 -233 521 -236 l 535 -156 l 526 -81 q 523 -60 526 -75 q 514 -33 519 -46 q 506 -56 510 -51 q 492 -61 503 -61 q 483 -59 489 -61 q 474 -51 476 -57 q 467 -18 467 -31 q 457 10 468 -6 l 411 10 q 401 -10 403 3 q 400 -35 400 -22 q 398 -60 400 -49 q 388 -78 396 -72 q 391 -106 389 -90 q 395 -137 393 -122 q 399 -165 397 -153 q 400 -178 400 -176 q 396 -205 400 -187 q 374 -222 392 -222 q 356 -215 361 -222 q 348 -200 350 -208 q 346 -183 346 -192 q 346 -172 346 -175 q 347 -153 346 -171 q 350 -115 349 -135 q 353 -77 351 -94 q 354 -57 354 -60 q 353 -48 354 -56 q 351 -32 353 -40 q 344 -17 349 -24 q 335 -11 340 -11 q 318 -16 331 -11 q 301 -21 306 -21 q 287 -12 289 -21 q 282 8 285 -3 q 280 10 279 10 q 275 10 281 10 q 263 8 271 10 q 247 5 256 7 q 233 0 239 3 q 225 -4 226 -3 q 228 -13 228 -7 q 228 -25 228 -19 q 227 -36 228 -29 q 224 -49 226 -43 q 208 -57 218 -57 q 199 -42 200 -50 q 194 -21 199 -33 q 188 -28 190 -24 q 185 -36 186 -33 q 179 -60 182 -46 q 174 -85 176 -74 q 169 -95 172 -89 q 164 -107 165 -101 q 163 -119 163 -112 q 164 -133 164 -126 q 161 -138 164 -136 q 158 -144 158 -140 l 158 -224 q 155 -233 158 -228 q 149 -240 151 -237 l 142 -240 q 135 -237 138 -240 q 128 -231 132 -233 q 127 -217 128 -225 q 129 -206 126 -210 q 135 -192 131 -200 q 140 -181 140 -185 q 138 -159 140 -176 q 133 -126 136 -142 q 132 -99 132 -114 q 131 -71 132 -85 q 126 -45 129 -57 q 114 -29 122 -33 q 103 -24 111 -26 q 93 -15 96 -21 q 90 -8 92 -12 q 86 1 89 -3 q 67 6 76 4 q 46 10 57 7 l 46 69 q 44 74 46 74 q 42 76 43 74 q 40 122 42 96 q 38 171 39 147 q 37 212 38 194 q 36 232 36 229 q 37 243 36 233 q 38 265 38 253 q 40 291 39 278 q 43 315 42 304 l 46 847 q 44 872 43 858 q 42 899 44 886 q 39 902 42 900 q 36 908 36 904 q 44 941 36 932 q 75 950 51 950 q 86 949 78 950 q 99 947 94 947 q 104 947 103 947 q 108 951 106 947 q 115 972 111 960 q 121 997 118 985 q 124 1020 124 1010 q 121 1035 124 1031 l 176 957 q 178 958 178 957 q 179 961 178 960 q 182 982 181 969 q 185 1006 183 994 q 187 1025 186 1017 q 188 1036 188 1033 l 188 1085 q 185 1097 188 1089 q 183 1110 182 1104 l 183 1122 q 199 1103 190 1114 q 214 1081 207 1092 q 246 1024 229 1057 q 282 964 263 992 q 299 999 289 978 q 329 1036 310 1019 q 349 1035 336 1036 q 375 1036 361 1035 l 389 951 q 399 967 396 958 q 406 985 401 976 q 425 965 415 976 q 442 944 435 954 q 446 946 444 944 q 459 983 453 958 q 464 1022 465 1007 q 492 995 483 1017 q 507 961 500 974 q 525 979 514 964 q 538 1001 536 994 q 566 971 550 990 q 590 936 582 951 q 620 933 603 939 q 651 911 638 926 q 656 899 654 907 q 663 885 658 892 q 681 868 669 875 q 704 851 693 861 q 734 822 719 839 q 757 789 749 806 q 776 735 774 757 q 779 679 779 714 q 777 638 779 656 q 767 601 775 619 q 742 560 758 582 q 694 504 725 538 q 787 417 754 469 q 831 314 819 364 q 833 297 832 307 q 834 276 833 286 q 835 256 835 265 q 836 246 836 247 m 558 656 q 556 669 558 660 q 548 690 553 679 q 536 710 543 701 q 522 724 529 719 q 473 736 501 735 q 422 736 444 738 l 251 736 q 250 704 249 708 q 251 696 251 700 l 251 603 l 256 560 q 276 556 265 558 q 292 553 288 553 l 454 553 q 466 554 457 553 q 486 558 475 556 q 506 565 497 561 q 518 571 515 568 q 546 612 533 585 q 558 656 558 639 m 619 297 q 617 317 619 303 q 607 347 614 332 q 590 372 600 361 q 564 383 579 383 l 244 382 l 244 244 q 246 228 244 238 q 249 210 247 219 q 249 194 250 201 q 243 185 249 186 l 390 185 q 408 187 396 185 q 426 189 419 189 q 448 188 435 189 q 464 186 461 186 q 533 195 492 186 q 597 232 574 204 q 606 247 603 239 q 611 261 608 254 q 612 267 613 264 q 613 272 611 271 q 617 286 615 278 q 619 297 619 294 z "},"C":{"ha":943,"x_min":-32,"x_max":936,"o":"m 936 176 q 928 165 936 167 q 918 160 921 163 q 877 124 897 140 q 839 90 857 108 q 831 65 829 81 q 831 39 833 50 q 827 1 828 21 q 824 -39 826 -19 q 813 -49 821 -47 q 803 -51 806 -51 q 785 -44 790 -51 q 777 -28 779 -37 q 774 -8 775 -18 q 772 10 774 3 q 755 35 769 24 q 731 46 740 46 q 710 37 718 46 q 696 15 701 28 q 688 -10 690 3 q 686 -31 686 -24 l 700 -176 q 700 -192 700 -183 q 697 -208 700 -200 q 689 -221 694 -215 q 672 -226 683 -226 q 651 -221 658 -226 q 642 -207 644 -215 q 639 -190 639 -199 q 639 -175 639 -181 l 649 -51 q 647 -30 649 -42 q 640 -8 646 -18 q 626 10 635 3 q 603 17 617 17 q 596 15 599 17 q 590 13 593 14 q 565 -1 575 10 q 550 -24 556 -11 q 542 -49 544 -36 q 536 -72 539 -62 q 532 -85 535 -78 q 524 -97 529 -92 q 513 -104 521 -99 q 499 -107 506 -110 q 488 -82 489 -96 q 486 -55 488 -68 q 479 -29 485 -42 q 453 -10 474 -17 l 446 -3 q 417 24 440 24 q 408 24 417 24 q 390 22 400 24 q 372 19 381 21 q 358 15 363 18 q 356 -6 356 7 q 356 -24 356 -19 q 358 -61 356 -47 q 363 -84 360 -75 q 367 -101 365 -93 q 369 -124 369 -110 q 364 -146 369 -136 q 347 -156 358 -156 q 331 -144 335 -156 q 328 -119 328 -133 q 330 -94 328 -106 q 332 -82 332 -82 q 336 -43 333 -62 q 332 -4 339 -24 q 291 47 321 25 q 238 92 261 69 q 206 122 222 106 q 174 156 189 138 q 160 173 168 161 q 144 199 153 185 q 129 228 136 213 q 118 256 122 243 q 108 277 115 264 q 99 300 101 290 q 85 335 93 314 q 69 381 76 356 q 58 431 63 406 q 54 479 53 457 l 75 611 l 74 613 q 74 617 74 615 q 75 621 75 618 q 44 674 60 649 q 0 721 28 699 l 88 701 q 89 704 89 703 l 89 707 q 53 746 72 726 q 18 779 33 765 q -6 800 7 790 q -32 821 -18 810 l 8 811 l 10 811 q 13 814 10 811 l 133 778 l 144 778 l 144 781 q 132 806 139 794 q 122 832 125 818 q 115 865 118 847 q 110 903 113 883 l 110 911 q 131 897 117 904 q 157 883 146 890 q 183 865 171 875 q 210 843 194 854 l 217 849 q 208 862 213 853 q 206 876 203 871 q 219 873 211 874 q 232 872 228 872 q 242 872 238 872 q 253 879 247 872 q 235 907 246 893 q 207 940 225 921 q 212 942 208 940 q 219 943 215 943 q 250 936 238 943 q 278 926 263 929 q 280 927 281 928 q 279 931 279 926 q 275 949 279 935 q 268 971 271 963 q 301 971 281 972 q 338 967 322 969 q 365 960 349 964 q 386 956 382 956 q 399 958 388 956 q 427 965 411 961 q 460 974 443 969 q 488 981 476 978 q 516 984 499 983 q 538 985 533 985 q 677 973 608 985 q 804 929 746 961 q 820 916 808 926 q 843 901 832 906 q 865 891 851 899 q 892 874 879 883 q 915 853 906 864 q 924 829 924 842 q 911 810 924 826 q 883 776 899 794 q 855 742 868 758 q 839 722 842 726 q 815 693 831 708 q 788 678 800 678 q 776 685 779 678 q 767 694 772 692 q 754 700 761 697 q 740 708 747 703 q 724 719 738 710 q 692 740 710 729 q 658 759 675 750 q 635 768 642 768 q 625 763 629 768 q 616 753 621 758 q 606 744 611 749 q 593 739 600 739 q 572 753 581 739 q 556 775 563 768 l 549 775 q 536 749 543 763 q 522 719 529 735 q 493 726 510 718 q 458 743 476 733 q 454 727 454 738 q 453 707 454 717 q 449 690 453 697 q 431 683 444 683 l 376 688 q 380 665 375 679 q 385 638 385 650 q 360 627 376 626 q 328 625 343 628 q 338 603 332 615 q 343 586 343 592 q 338 573 343 576 q 326 569 333 569 q 310 567 318 568 q 297 563 303 567 q 315 539 304 553 q 326 521 326 525 q 322 506 326 511 q 310 497 317 500 q 297 491 303 493 q 288 486 290 489 q 285 472 286 481 q 285 460 285 464 q 292 405 285 435 q 313 347 299 375 q 351 295 328 319 q 410 258 375 271 q 429 251 418 256 q 449 242 440 246 q 514 219 488 224 q 560 215 540 215 q 656 231 618 215 q 717 263 693 246 q 756 296 742 281 q 783 311 771 311 q 824 293 799 311 q 875 251 850 275 q 918 206 900 228 q 936 176 936 183 z "},"D":{"ha":940,"x_min":44,"x_max":958,"o":"m 958 483 l 954 447 q 946 397 950 424 q 935 349 942 371 q 926 326 932 340 q 914 299 919 311 q 893 251 904 276 q 867 201 882 226 q 832 153 851 176 q 788 111 813 129 q 760 93 776 103 q 728 72 744 83 q 715 54 721 67 q 708 31 710 42 q 705 27 706 28 q 704 21 704 26 l 704 3 q 706 -6 704 -1 q 706 -12 707 -10 q 701 -17 704 -14 q 699 -24 699 -19 l 699 -56 q 682 -61 693 -61 q 664 -49 669 -61 q 658 -35 658 -37 l 658 -15 q 644 17 658 1 q 615 32 631 32 q 591 22 600 32 q 577 -1 582 13 q 571 -26 572 -14 q 569 -42 569 -37 l 585 -186 q 584 -198 585 -190 q 581 -213 583 -206 q 572 -227 578 -221 q 557 -233 567 -233 q 539 -226 546 -233 q 529 -211 532 -219 q 526 -195 526 -203 q 525 -185 525 -187 l 538 -53 q 534 -34 538 -44 q 524 -15 531 -24 q 509 0 518 -6 q 490 4 500 6 q 463 -4 478 3 q 442 -22 449 -11 q 431 -49 435 -33 q 424 -80 428 -65 q 414 -104 419 -94 q 396 -114 408 -114 q 383 -108 386 -114 q 378 -90 381 -103 l 375 -56 q 363 -32 375 -42 q 343 -18 350 -22 q 338 -9 340 -15 q 332 3 335 -3 q 319 13 325 13 q 308 13 314 13 l 265 10 q 249 0 258 10 l 249 -62 l 264 -133 q 242 -162 261 -162 q 229 -157 235 -162 q 224 -149 224 -151 l 224 -108 l 229 -82 l 232 -42 q 228 -16 229 -31 q 213 13 226 -1 l 115 7 q 113 -42 111 -14 q 117 -101 114 -69 q 124 -164 121 -132 q 128 -226 128 -196 q 126 -247 128 -233 q 108 -261 124 -261 q 92 -253 101 -261 q 82 -233 82 -244 l 82 -15 q 70 6 82 -4 q 47 22 58 17 l 47 113 q 54 122 51 117 q 57 139 57 128 q 52 206 56 172 q 49 274 49 239 q 48 506 47 381 q 44 786 49 631 l 54 844 l 54 989 q 215 990 157 989 q 302 992 272 990 q 342 993 332 993 q 361 994 353 993 q 385 996 369 996 q 442 997 401 996 l 582 976 q 626 963 603 969 q 668 949 650 956 q 743 908 703 933 q 819 849 783 882 q 883 777 856 815 q 921 700 910 739 q 933 667 926 683 q 942 632 939 651 q 947 603 943 618 q 954 569 950 589 l 958 483 m 718 522 l 714 569 q 697 624 711 596 q 664 676 682 653 q 658 685 661 679 q 651 693 654 690 q 621 720 638 706 q 587 747 604 735 q 552 769 569 760 q 521 779 535 778 l 425 794 q 340 794 365 794 q 304 792 314 793 q 292 790 294 790 q 279 788 290 789 q 278 703 279 743 q 276 614 276 664 q 275 494 275 564 q 276 317 275 424 q 276 298 276 314 q 277 264 276 282 q 278 231 278 246 q 281 214 279 215 l 425 211 q 463 219 442 215 q 515 224 483 222 l 554 229 q 569 235 561 232 q 582 240 578 238 q 617 266 597 251 q 654 298 636 281 q 685 335 672 315 q 701 379 699 356 l 718 522 z "},"E":{"ha":819,"x_min":49,"x_max":810,"o":"m 806 933 l 775 771 l 299 771 l 299 593 q 324 583 307 585 q 370 582 340 581 q 444 585 400 583 q 554 588 489 588 q 576 588 560 588 q 612 590 592 589 q 653 592 632 590 q 692 594 675 593 q 704 587 701 594 q 707 576 707 579 q 704 559 707 574 q 699 525 701 544 q 692 484 696 506 q 686 449 688 463 q 685 436 685 446 q 685 382 685 426 l 299 382 l 288 304 l 288 194 l 454 185 l 631 182 l 779 188 q 788 186 783 188 q 799 185 793 185 l 803 188 l 803 153 l 783 60 l 783 7 q 776 -8 783 3 q 767 -26 769 -19 q 744 -32 756 -29 q 722 -37 733 -35 l 693 -29 q 682 -36 692 -29 q 691 -202 685 -146 q 697 -278 697 -258 q 692 -299 697 -287 q 676 -310 688 -310 q 660 -301 672 -310 q 651 -281 649 -292 l 650 -61 q 633 -33 644 -40 q 610 -25 621 -25 q 576 -37 590 -25 q 561 -68 561 -49 l 561 -89 q 550 -112 561 -104 q 531 -121 539 -121 q 513 -110 524 -121 l 513 -72 q 507 -61 513 -67 q 497 -56 501 -56 q 488 -60 493 -56 q 481 -69 483 -65 q 469 -103 474 -86 q 460 -137 464 -119 l 465 -182 l 465 -236 q 455 -246 465 -237 q 439 -254 444 -254 q 426 -250 432 -254 q 417 -240 421 -246 q 410 -229 413 -235 q 407 -221 407 -224 l 413 -185 l 413 -135 q 407 -112 413 -126 q 390 -97 401 -97 q 383 -99 386 -97 q 372 -100 379 -101 q 351 -82 358 -99 q 335 -56 343 -65 q 324 -49 329 -50 q 314 -47 318 -47 q 286 -86 288 -47 q 278 -104 285 -97 q 267 -111 271 -111 l 258 -111 q 249 -105 253 -111 q 243 -92 246 -99 q 239 -78 240 -85 q 238 -69 238 -71 q 193 -17 233 -17 q 163 -35 174 -17 q 151 -74 151 -54 q 153 -131 151 -108 q 158 -169 156 -153 q 163 -201 161 -186 q 165 -236 165 -215 q 165 -244 165 -237 q 162 -259 164 -251 q 156 -273 160 -267 q 146 -279 151 -279 l 128 -279 q 113 -267 119 -279 q 107 -250 106 -256 l 117 -104 q 115 -88 117 -100 q 108 -69 113 -76 q 101 -61 106 -65 q 94 -54 97 -57 q 93 -48 94 -51 q 92 -42 92 -44 q 78 -15 89 -18 q 61 -7 68 -12 l 51 113 l 49 639 l 54 667 l 56 825 l 61 853 l 61 924 l 56 951 q 68 971 60 968 q 86 974 76 974 q 103 971 92 974 q 119 970 108 971 q 168 969 129 969 q 286 968 207 968 q 510 968 365 968 l 785 971 q 801 958 793 972 q 806 933 810 943 z "},"F":{"ha":782,"x_min":65,"x_max":835,"o":"m 401 957 q 394 951 399 954 q 388 944 390 949 l 376 957 l 401 957 m 835 928 l 806 751 q 783 757 797 763 q 758 751 769 751 l 640 751 q 601 749 638 751 q 522 745 565 747 q 443 742 479 743 q 404 740 407 740 l 347 740 q 331 738 343 740 q 310 731 319 735 l 310 560 q 329 554 317 553 q 351 554 342 556 q 370 550 358 553 q 388 547 382 547 l 740 547 q 751 542 744 547 q 760 533 757 538 q 749 477 753 501 q 743 432 746 453 q 736 391 740 411 q 724 346 732 371 l 664 349 l 658 349 q 650 335 654 343 q 646 322 646 328 l 646 265 l 661 79 q 656 57 661 68 q 639 46 650 46 q 624 55 635 46 q 615 75 613 64 l 613 296 q 595 326 607 318 q 572 333 583 333 q 533 318 542 333 q 522 285 524 303 q 517 251 519 267 q 493 236 514 236 q 479 242 488 236 q 475 264 475 254 q 475 281 475 274 q 472 293 475 288 q 458 303 469 299 q 433 269 440 293 q 422 225 426 244 q 422 201 419 214 q 426 176 424 189 q 430 149 429 163 q 425 121 431 135 q 416 108 422 114 q 400 101 410 101 q 386 106 390 101 q 376 117 382 110 q 369 131 371 124 q 370 150 367 138 q 374 167 374 163 l 374 222 q 371 235 374 224 q 365 260 368 246 q 358 286 361 274 q 351 306 354 299 q 335 329 346 321 q 317 342 325 338 l 301 250 l 300 -17 q 296 -37 297 -26 q 290 -58 294 -49 q 286 -67 289 -62 q 282 -76 283 -72 q 279 -110 282 -94 q 271 -133 276 -122 q 256 -143 265 -143 q 244 -136 247 -143 q 241 -119 242 -129 q 240 -102 240 -110 q 240 -92 240 -94 q 238 -84 239 -89 q 232 -79 238 -79 l 225 -79 q 208 -114 213 -94 q 201 -158 203 -140 q 200 -194 199 -175 q 202 -212 200 -199 q 203 -240 204 -225 q 199 -266 203 -254 q 182 -278 194 -278 q 164 -265 169 -278 q 158 -237 158 -253 q 159 -209 157 -222 q 161 -193 161 -196 q 161 -178 161 -190 q 160 -153 161 -167 q 155 -130 158 -140 q 144 -119 151 -119 q 138 -121 140 -119 q 131 -122 136 -122 q 124 -121 126 -122 q 119 -119 122 -119 q 111 -103 115 -112 q 103 -83 107 -93 q 97 -78 101 -82 q 92 -71 93 -75 q 81 -25 86 -44 q 73 14 76 -6 q 67 54 69 33 q 65 103 65 75 q 65 120 65 104 q 67 170 65 136 q 69 261 68 204 q 72 401 69 318 q 72 425 72 403 q 72 474 72 447 q 72 524 72 500 q 69 551 71 547 l 69 564 l 69 600 l 72 939 q 79 953 72 946 q 94 960 86 960 l 356 960 l 356 957 q 353 953 356 956 q 371 933 356 949 q 367 926 371 931 q 360 919 363 922 q 348 928 353 922 q 336 939 343 933 q 322 928 328 931 q 333 915 326 921 q 340 904 340 908 q 335 897 340 900 q 326 889 329 893 l 306 911 q 292 900 300 904 q 299 888 296 893 q 310 878 303 883 q 306 871 310 875 q 299 863 301 867 q 287 872 292 867 q 275 883 282 878 q 261 872 269 876 q 282 850 268 861 q 274 842 279 846 q 267 833 269 839 l 293 804 q 300 810 297 807 q 307 817 303 813 q 299 827 303 822 q 289 839 296 832 q 293 845 289 842 q 300 853 297 849 q 324 832 314 843 q 331 838 328 835 q 338 844 333 840 q 331 852 335 847 q 319 864 326 857 q 324 872 319 867 q 331 881 328 878 q 342 872 335 878 q 354 861 349 867 q 361 865 358 863 q 368 872 364 868 q 350 892 364 879 q 354 900 350 894 q 361 908 358 906 q 373 899 368 906 q 385 886 378 892 l 399 900 l 381 919 q 385 928 381 924 q 392 938 389 933 q 404 928 399 933 q 415 917 410 922 q 422 922 419 918 q 429 928 425 925 q 419 941 425 935 q 411 954 414 947 q 415 958 414 957 q 421 960 415 960 q 433 954 425 960 q 446 942 442 949 q 454 949 450 946 q 460 957 458 953 l 713 957 q 725 955 717 957 q 742 953 733 953 q 785 951 763 951 q 829 951 807 951 q 831 940 831 946 q 835 928 832 933 m 282 800 q 278 809 282 801 q 267 825 274 817 q 253 840 261 833 q 238 846 244 846 q 228 842 235 846 q 222 831 222 838 q 226 821 222 828 q 238 806 231 814 q 251 791 244 797 q 265 785 258 785 q 276 788 271 785 q 282 800 282 790 m 243 767 q 240 776 243 769 q 230 791 236 783 q 216 804 224 799 q 200 810 208 810 q 188 808 194 810 q 185 804 182 807 q 176 795 186 801 q 151 780 165 789 q 126 761 138 771 q 114 742 114 751 q 115 732 114 738 q 119 724 117 726 q 147 693 139 704 q 172 682 156 682 q 188 692 176 682 q 213 717 200 703 q 234 745 225 731 q 243 767 243 760 m 221 765 q 213 747 221 754 q 193 739 204 739 q 178 747 183 739 q 172 761 172 754 q 181 778 172 769 q 197 786 189 786 q 215 778 208 786 q 221 765 221 769 z "},"G":{"ha":1006,"x_min":58,"x_max":1021,"o":"m 1021 268 q 1021 241 1021 247 q 1020 229 1021 235 q 1017 212 1019 224 q 1010 168 1015 200 q 1010 133 1007 153 q 1006 94 1013 114 q 994 78 1003 86 q 977 61 986 69 q 960 46 968 53 q 947 36 951 39 q 898 3 922 15 q 850 -19 874 -10 q 804 -37 826 -29 q 761 -58 782 -46 q 751 -72 754 -62 q 747 -89 747 -82 q 744 -131 746 -107 q 742 -160 742 -156 q 743 -180 742 -162 q 747 -217 744 -197 q 750 -255 749 -237 q 751 -275 751 -272 q 747 -299 751 -286 q 726 -312 742 -312 q 710 -301 715 -312 q 708 -279 706 -290 l 718 -204 q 716 -172 717 -189 q 713 -138 715 -154 q 704 -108 710 -122 q 688 -83 699 -93 q 679 -80 685 -81 q 668 -76 674 -79 q 663 -69 665 -74 q 658 -60 660 -64 q 622 -64 640 -62 q 585 -65 604 -65 q 580 -92 582 -75 q 578 -114 578 -110 l 578 -178 q 568 -189 578 -186 q 558 -192 563 -190 q 545 -181 547 -192 q 545 -156 543 -171 q 550 -122 547 -140 q 551 -89 553 -104 q 547 -77 550 -83 q 540 -64 543 -71 q 535 -38 538 -50 q 517 -26 533 -26 q 494 -36 499 -26 q 488 -58 489 -46 q 484 -81 486 -71 q 469 -90 482 -90 l 461 -90 q 446 -76 449 -90 q 440 -43 443 -61 q 428 -10 438 -25 q 396 4 419 4 q 371 -6 379 4 q 359 -31 363 -17 q 355 -58 356 -44 q 354 -76 354 -71 l 367 -217 q 363 -244 367 -228 q 339 -261 358 -261 q 319 -255 326 -261 q 310 -240 313 -249 q 308 -222 308 -231 q 308 -208 308 -212 l 318 -83 q 316 -67 318 -79 q 310 -49 314 -56 q 303 -41 307 -46 q 296 -33 299 -36 q 292 -18 293 -28 q 288 -1 290 -8 q 260 19 267 7 q 246 40 253 32 q 232 52 240 47 q 217 64 224 57 q 167 122 192 92 q 121 183 143 151 q 99 231 110 200 q 78 297 88 261 q 64 366 69 332 q 58 424 58 400 q 60 444 58 426 q 63 485 61 461 q 68 535 65 510 q 75 576 71 560 q 85 606 78 589 q 99 638 92 622 q 120 683 107 657 q 150 732 133 710 q 185 777 163 749 q 226 825 207 806 q 324 895 275 871 q 418 940 374 919 q 454 949 432 947 q 493 954 476 951 q 526 961 515 958 q 544 965 536 964 q 561 966 553 965 q 588 967 569 967 q 622 965 592 967 q 676 958 651 963 q 738 943 704 953 q 804 922 772 933 q 842 906 815 918 q 897 876 869 893 q 947 842 925 860 q 968 814 968 825 q 958 788 968 799 q 938 765 949 778 q 915 738 929 754 q 892 710 901 722 q 866 678 882 697 q 833 658 850 658 q 815 669 822 658 q 788 690 807 679 q 738 714 767 701 q 681 733 708 726 q 647 739 667 736 q 608 744 626 742 q 574 747 589 746 q 558 747 560 747 q 478 726 517 747 q 410 676 440 706 q 359 615 379 647 q 331 557 339 582 q 324 542 328 550 q 317 525 319 533 q 309 477 310 503 q 308 428 308 451 l 308 382 q 327 322 311 353 q 367 262 343 290 q 422 211 392 233 q 483 181 453 189 q 510 169 494 178 q 542 157 526 161 q 560 155 549 156 q 582 154 571 154 q 602 154 593 154 q 614 154 611 154 q 649 154 628 154 q 693 158 671 154 q 735 170 715 161 q 768 197 756 179 q 772 212 772 203 q 772 225 772 221 q 769 242 772 231 q 767 258 767 253 l 767 322 l 664 322 q 640 324 660 322 q 604 328 619 325 q 592 333 600 329 q 576 338 583 338 l 576 524 q 583 527 579 524 q 593 531 588 531 l 636 531 l 686 524 l 829 524 q 847 525 831 524 q 883 528 864 526 q 918 532 901 531 q 938 533 935 533 q 966 534 950 533 q 1003 522 982 535 q 1012 508 1010 519 q 1017 489 1014 497 l 1021 268 z "},"H":{"ha":888,"x_min":46,"x_max":890,"o":"m 890 825 l 890 803 q 890 752 890 786 q 888 656 889 718 l 888 321 q 885 267 886 304 q 882 183 883 229 q 879 90 881 138 q 876 3 878 42 q 870 -15 876 -4 q 858 -25 864 -25 l 740 -25 q 728 -24 738 -25 q 708 -20 719 -22 q 683 -15 696 -18 q 663 -8 671 -11 q 657 -1 660 -7 q 656 10 654 6 l 656 385 l 588 385 q 558 343 558 371 l 558 322 q 548 299 558 307 q 528 292 538 292 q 520 294 525 292 q 511 303 515 297 l 511 340 q 505 351 511 346 q 494 357 499 357 q 485 352 490 357 q 478 343 481 347 q 458 275 464 307 l 463 229 l 463 176 q 452 166 463 174 q 436 157 442 158 q 424 161 429 157 q 414 172 418 165 q 407 183 410 178 q 404 192 404 189 l 410 226 l 410 278 q 405 299 410 285 q 389 314 400 314 q 381 313 383 314 q 371 311 378 311 q 348 329 356 313 q 332 357 340 346 q 327 360 331 358 q 319 363 324 363 q 316 371 317 365 q 313 381 315 376 l 271 381 l 271 143 l 275 118 l 275 -28 l 210 -28 q 203 -46 203 -36 l 203 -71 l 200 -107 q 197 -108 197 -107 q 192 -110 196 -110 q 181 -96 181 -110 l 181 -64 q 172 -45 181 -49 q 151 -42 163 -42 l 88 -51 l 72 -11 q 70 -14 69 -14 q 67 -14 71 -14 q 52 -3 58 -14 q 46 10 46 7 l 46 22 l 51 813 l 57 840 l 57 971 l 179 971 l 204 976 l 261 976 q 274 970 267 976 q 281 960 281 964 l 281 929 l 276 906 l 276 589 l 660 596 q 657 599 657 599 q 656 603 657 600 q 656 701 656 657 q 656 785 656 744 q 658 869 657 826 q 660 968 658 913 q 668 971 663 968 q 678 974 674 974 q 683 971 682 974 q 689 968 685 968 l 779 968 l 807 974 l 850 974 q 861 971 854 974 q 872 967 868 968 q 880 956 878 963 q 885 944 882 950 l 890 825 z "},"I":{"ha":406,"x_min":76,"x_max":415,"o":"m 415 481 q 415 456 415 476 q 414 421 415 435 q 410 404 413 414 q 407 390 407 394 l 407 288 q 406 276 407 285 q 403 254 404 267 q 399 228 401 242 q 394 204 396 214 q 376 119 386 163 q 353 35 365 76 q 346 23 351 29 q 340 10 340 17 q 338 -16 338 -1 q 328 -46 339 -31 q 318 -52 325 -50 q 306 -54 311 -54 q 297 -40 297 -49 q 297 -22 296 -32 q 295 -4 297 -12 q 282 10 293 4 q 265 -16 267 -1 q 258 -43 264 -31 q 252 -80 251 -60 q 256 -115 253 -100 q 258 -138 258 -126 q 256 -162 257 -150 q 248 -176 254 -169 q 233 -183 242 -183 q 215 -172 222 -183 q 206 -150 207 -160 q 209 -123 206 -140 q 213 -92 213 -106 q 212 -81 213 -90 q 209 -60 211 -71 q 203 -40 207 -49 q 193 -32 200 -32 q 187 -33 189 -32 q 181 -35 185 -35 q 160 -22 169 -35 q 148 18 149 -4 q 142 58 147 40 q 128 90 138 71 q 114 129 118 110 q 101 206 106 167 q 90 282 97 244 q 87 301 89 289 q 83 325 85 313 q 78 348 81 338 q 76 361 76 358 l 76 572 q 82 628 76 590 q 99 701 88 665 q 110 710 101 707 q 122 718 119 714 q 127 736 126 725 q 131 757 128 747 l 132 876 l 144 929 q 143 934 143 932 q 140 938 143 936 q 128 928 135 935 q 114 921 121 921 q 104 926 107 921 q 101 936 101 932 q 109 954 101 943 q 127 976 117 965 q 148 996 138 988 q 165 1006 158 1004 q 190 1007 174 1008 q 213 1006 207 1006 q 233 1007 217 1006 q 261 1006 250 1008 q 303 972 286 996 q 333 925 319 949 q 338 907 336 921 q 340 886 339 893 q 342 878 340 882 q 346 871 344 875 q 350 840 349 858 q 351 818 351 822 l 351 725 q 368 707 360 718 q 382 683 375 697 q 394 647 389 668 q 408 582 404 604 q 414 545 413 560 q 415 518 415 531 q 415 481 415 506 m 300 826 q 300 836 300 829 q 289 843 300 843 q 281 842 286 843 q 272 840 276 840 q 256 845 264 840 q 247 861 247 850 q 258 882 247 874 q 267 884 261 883 q 280 886 274 885 q 291 890 286 888 q 296 899 296 893 q 282 914 296 906 q 261 925 268 922 q 253 926 258 926 q 243 926 247 926 q 218 924 231 926 q 192 906 206 921 l 192 892 q 217 882 207 889 q 228 861 228 875 q 221 847 228 854 q 206 840 214 840 q 195 844 201 840 q 185 849 189 849 q 180 847 181 849 q 176 846 179 846 q 174 839 175 842 q 174 832 174 836 q 176 813 174 828 q 179 788 179 797 q 203 758 189 778 q 235 739 217 739 l 244 739 q 256 745 250 739 q 265 756 263 751 q 278 765 271 760 q 288 775 285 771 q 297 805 294 788 q 300 826 300 822 m 251 807 q 245 807 249 810 q 236 804 242 804 q 231 817 231 810 q 240 811 236 811 q 251 807 244 811 m 268 771 q 242 775 257 771 q 208 771 226 779 q 207 775 208 772 q 206 785 206 778 q 220 790 211 788 q 233 792 229 792 q 249 790 238 792 q 268 785 260 788 l 268 771 z "},"J":{"ha":713,"x_min":32,"x_max":717,"o":"m 717 864 q 715 838 717 860 q 708 801 713 817 l 711 350 q 701 280 706 318 q 690 211 697 242 q 674 163 686 194 q 654 104 663 132 q 641 67 647 82 q 628 39 635 51 q 613 15 621 26 q 592 -10 604 4 q 582 -11 585 -10 q 572 -35 578 -18 q 567 -64 567 -53 l 582 -208 q 581 -221 582 -212 q 578 -237 581 -229 q 569 -250 575 -244 q 553 -256 563 -256 q 535 -249 542 -256 q 526 -233 529 -242 q 523 -217 524 -225 q 522 -206 522 -208 l 535 -76 q 532 -60 535 -71 q 524 -41 529 -50 q 509 -25 518 -32 q 488 -18 500 -18 q 470 -24 483 -18 q 449 -36 457 -29 q 436 -50 442 -40 q 428 -77 431 -62 q 422 -106 425 -92 q 420 -110 422 -106 q 415 -121 418 -115 q 407 -131 411 -126 q 399 -136 403 -136 l 383 -136 q 376 -108 376 -122 q 374 -81 376 -93 q 365 -58 372 -68 q 340 -42 358 -47 q 327 -17 331 -25 q 306 -10 324 -10 q 271 -10 283 -10 q 253 -15 258 -11 q 247 -29 247 -19 q 246 -57 246 -39 q 247 -78 246 -61 q 250 -104 247 -94 q 257 -132 253 -115 q 261 -154 261 -149 q 256 -174 261 -162 q 240 -185 251 -185 q 223 -170 225 -185 q 223 -133 221 -156 q 227 -81 225 -110 q 221 -25 229 -53 q 210 -9 218 -18 q 194 0 201 0 q 185 -3 192 0 q 175 -7 179 -7 q 156 1 171 -7 q 131 17 142 10 q 131 22 131 18 q 128 28 131 25 q 111 41 126 29 q 78 68 96 53 q 47 99 61 83 q 32 121 32 114 q 50 153 32 129 q 92 203 68 178 q 137 250 115 229 q 165 271 158 271 q 175 265 168 271 q 190 251 182 258 q 203 236 197 243 q 213 228 210 229 q 247 207 229 217 q 283 190 265 197 q 299 186 289 188 q 319 185 310 185 q 337 185 329 185 q 347 185 344 185 q 363 183 351 185 q 381 185 374 182 q 405 195 392 188 q 429 210 418 203 q 438 221 432 211 q 451 242 444 231 q 463 263 458 253 q 468 276 468 274 l 468 893 q 466 908 468 897 q 464 924 464 918 q 465 950 464 940 q 472 964 467 960 q 487 969 478 968 q 513 969 496 969 q 522 971 515 969 q 548 973 529 972 q 600 972 567 974 q 688 967 633 971 q 701 953 696 967 q 710 924 707 940 q 715 890 714 907 q 717 864 717 874 z "},"K":{"ha":903,"x_min":51,"x_max":933,"o":"m 933 -14 q 928 -31 933 -28 q 903 -42 922 -35 l 903 -128 q 898 -144 903 -132 q 889 -165 893 -157 q 886 -168 888 -167 q 881 -169 885 -169 q 870 -165 876 -169 q 863 -156 864 -160 q 858 -137 861 -147 q 858 -117 856 -126 q 863 -101 860 -110 q 864 -85 867 -92 q 843 -53 858 -67 q 820 -76 833 -74 q 796 -78 807 -79 q 794 -87 793 -81 q 794 -125 794 -94 q 799 -145 796 -133 q 801 -161 801 -157 q 801 -178 801 -168 q 798 -199 800 -189 q 792 -215 796 -208 q 779 -222 788 -222 q 772 -221 774 -222 q 767 -218 769 -219 q 756 -206 763 -214 q 749 -190 750 -199 q 748 -171 749 -183 q 749 -147 747 -158 q 755 -106 751 -128 q 747 -67 758 -85 q 733 -54 744 -61 q 714 -39 721 -47 q 710 -32 711 -36 q 707 -25 710 -28 q 695 -15 704 -18 q 683 -7 686 -11 q 546 179 615 85 q 404 369 476 274 q 393 356 401 367 q 374 332 385 344 q 352 309 363 319 q 336 299 342 299 q 321 303 332 299 q 303 314 310 307 q 291 304 297 311 q 279 292 285 297 l 279 44 q 278 15 279 40 q 275 -29 276 -10 q 271 -35 275 -32 q 264 -39 267 -37 q 265 -62 263 -51 q 269 -82 268 -72 q 267 -101 269 -92 q 256 -124 265 -111 l 233 -124 q 219 -97 219 -114 q 215 -68 219 -79 q 181 -58 200 -58 q 144 -56 163 -58 q 136 -74 139 -67 q 133 -86 133 -81 q 132 -97 132 -92 q 132 -111 132 -103 l 144 -247 q 142 -280 144 -264 q 117 -296 139 -296 q 99 -289 104 -296 q 90 -274 93 -282 q 88 -257 88 -265 q 88 -246 88 -249 l 97 -122 q 96 -97 97 -110 q 72 -65 94 -85 q 66 -42 74 -50 q 57 -21 58 -35 q 58 39 56 0 q 60 113 61 78 q 55 141 58 124 q 51 164 51 158 l 51 878 q 52 891 51 879 q 54 917 53 903 q 57 946 56 932 q 60 965 58 960 l 228 968 q 243 968 233 968 q 262 966 253 968 q 277 959 271 964 q 283 946 283 954 l 286 549 q 332 601 308 569 q 381 658 356 632 q 401 678 386 665 q 433 708 415 692 q 468 740 450 724 q 499 768 486 756 q 612 883 557 824 q 726 997 667 942 q 756 1023 739 1008 q 789 1049 774 1038 q 810 1064 804 1060 q 831 1068 817 1068 q 841 1067 836 1068 q 851 1065 846 1065 l 851 1047 q 847 1031 851 1044 q 834 1000 842 1018 q 818 963 826 982 q 804 931 810 943 q 803 919 803 925 q 800 908 803 914 q 780 855 793 886 q 767 800 767 824 l 783 635 q 783 621 783 629 q 781 605 783 613 q 772 592 778 597 q 757 586 767 586 q 740 592 746 586 q 731 607 733 599 q 727 623 728 615 q 726 635 726 631 l 736 731 q 735 742 736 735 q 732 756 735 750 l 722 756 q 702 724 715 744 q 678 685 689 704 q 672 661 672 675 q 669 635 672 647 q 665 628 668 632 q 661 619 661 624 q 658 600 660 611 q 656 578 657 589 q 658 538 654 558 q 660 496 661 517 q 649 478 658 489 q 629 468 639 468 q 616 475 626 468 q 606 486 606 482 q 603 503 604 493 q 603 522 603 514 q 605 542 603 532 q 609 562 607 551 q 610 583 611 572 q 603 607 610 594 q 588 588 596 599 q 572 566 579 576 q 559 548 564 556 q 554 539 554 540 q 582 490 554 529 q 652 396 610 451 q 744 276 694 340 q 835 153 793 211 q 906 49 878 94 q 933 -14 933 4 z "},"L":{"ha":721,"x_min":51,"x_max":772,"o":"m 772 181 l 761 124 l 761 103 l 769 60 l 769 11 q 765 3 769 7 q 754 -2 760 0 q 743 -6 749 -4 q 736 -8 738 -7 q 726 -16 732 -10 q 714 -22 719 -22 l 663 -22 q 644 -18 657 -22 q 625 -14 631 -14 q 612 -17 621 -14 q 599 -19 603 -19 l 567 -19 l 557 -46 l 557 -100 q 560 -103 557 -104 q 563 -107 563 -101 l 563 -178 q 572 -189 563 -182 l 572 -208 q 553 -217 564 -217 q 542 -213 546 -217 q 534 -205 538 -210 q 526 -193 531 -200 q 517 -181 522 -186 l 517 -151 l 526 -124 l 519 -83 l 522 -21 q 510 -17 514 -17 q 488 -30 506 -17 q 458 -50 469 -43 q 453 -60 454 -53 q 446 -72 451 -67 l 438 -72 l 383 -60 q 360 -70 365 -61 q 356 -86 354 -79 l 353 -125 q 335 -122 343 -132 l 332 -69 q 319 -29 328 -42 q 292 -17 311 -17 q 267 -23 275 -17 q 256 -37 260 -29 q 247 -55 251 -46 q 233 -69 243 -64 q 226 -71 231 -71 q 218 -74 221 -71 q 202 -108 207 -85 q 196 -144 197 -132 l 190 -208 l 201 -265 q 199 -285 203 -269 q 183 -300 194 -300 q 163 -285 168 -300 q 158 -262 158 -269 l 165 -167 q 168 -151 168 -160 q 167 -135 168 -142 q 164 -131 165 -132 q 163 -124 163 -129 l 163 -76 q 151 -53 163 -64 q 124 -35 139 -43 q 97 -23 110 -28 q 81 -17 83 -18 q 76 -12 78 -15 q 72 -6 75 -8 q 64 -1 69 -3 q 51 7 58 0 l 51 861 l 60 911 l 60 951 q 68 960 60 956 q 79 965 76 965 l 268 963 q 280 958 274 960 q 289 950 286 956 l 289 588 q 292 572 289 582 q 292 553 294 563 l 282 482 l 286 293 l 292 242 q 307 207 294 229 q 381 206 349 207 q 457 206 413 206 q 569 206 501 206 q 747 210 636 207 q 767 198 764 211 q 772 181 771 185 z "},"M":{"ha":1076,"x_min":61,"x_max":1069,"o":"m 1069 -19 q 1067 -30 1069 -26 q 1061 -36 1065 -33 q 1051 -44 1057 -39 q 1039 -60 1046 -50 q 1034 -81 1035 -67 q 1033 -101 1033 -96 l 1044 -232 q 1039 -268 1044 -251 q 1010 -285 1033 -285 q 991 -278 997 -285 q 983 -264 985 -272 q 981 -247 981 -256 q 981 -233 981 -237 l 996 -81 q 993 -60 996 -74 q 985 -33 990 -47 q 970 -10 979 -19 q 949 0 961 0 q 922 -12 938 0 q 904 -37 907 -24 q 900 -65 901 -50 q 893 -93 899 -81 q 884 -99 890 -97 q 874 -101 878 -101 q 860 -99 867 -101 q 851 -87 854 -97 q 849 -66 850 -81 q 845 -35 847 -51 q 840 0 843 -18 q 831 32 836 18 q 831 50 828 39 q 835 65 835 61 l 835 338 q 833 349 835 342 q 831 361 831 356 l 831 583 q 769 497 801 547 q 700 396 736 446 q 676 356 689 379 q 648 308 663 333 q 619 258 633 283 q 589 210 604 232 q 576 202 585 203 q 558 194 568 201 q 545 197 554 197 q 531 203 536 197 q 503 235 517 215 q 478 278 490 256 q 455 324 467 301 q 432 368 443 347 q 399 422 413 401 q 374 458 385 443 q 351 488 363 474 q 326 524 340 503 q 309 558 315 540 q 290 592 303 576 l 290 444 q 293 420 290 439 q 296 386 296 401 l 297 65 q 292 26 294 49 q 287 -18 289 3 q 283 -54 285 -39 q 282 -72 282 -69 l 282 -187 q 283 -193 282 -192 q 286 -197 285 -194 q 287 -224 289 -206 q 279 -254 285 -243 q 267 -260 276 -260 q 253 -254 258 -260 q 243 -242 247 -249 q 237 -227 239 -235 q 235 -217 235 -219 l 250 -112 q 242 -85 246 -100 q 222 -64 238 -71 q 206 -85 210 -72 q 202 -110 203 -97 q 200 -136 201 -124 q 190 -157 199 -149 q 180 -157 186 -158 q 169 -151 174 -156 q 150 -113 154 -137 q 139 -71 146 -89 q 107 -37 129 -46 q 69 -28 85 -28 q 65 -18 69 -24 q 61 -8 61 -12 l 61 756 l 68 826 l 68 913 q 66 922 68 917 q 63 934 64 928 q 63 947 61 940 q 72 957 65 953 q 98 961 83 960 q 117 963 113 963 q 131 961 122 963 q 144 960 139 960 l 144 925 l 175 925 l 175 904 l 144 904 l 144 885 l 175 885 l 175 860 l 144 860 l 144 844 l 175 844 l 175 822 l 144 822 l 144 804 l 149 800 l 153 801 q 161 802 156 801 q 175 803 167 803 l 175 779 l 144 779 l 144 760 l 175 760 l 175 738 l 144 738 l 144 719 l 175 719 l 175 697 l 144 697 l 144 679 l 175 679 l 175 657 l 144 657 l 144 638 l 175 638 q 175 626 175 633 q 178 617 175 619 l 217 617 l 219 618 l 219 633 q 201 638 213 640 q 186 638 190 636 l 186 657 l 219 657 l 219 674 l 215 678 l 213 675 l 186 678 l 186 700 q 219 700 201 696 l 219 718 l 186 718 l 186 739 l 217 739 l 219 740 l 219 756 q 201 760 213 763 q 186 760 190 758 l 186 779 q 215 779 197 783 l 219 783 l 219 800 l 186 800 l 186 822 q 219 822 201 818 l 219 842 l 186 842 l 186 863 q 203 863 190 865 q 219 868 215 861 l 219 881 q 201 885 213 888 q 186 885 190 883 l 186 904 l 219 904 l 219 921 l 215 925 l 213 922 l 186 925 l 186 944 q 194 945 188 946 q 206 944 200 944 q 217 947 213 944 q 219 957 221 949 l 301 957 q 349 900 324 938 q 388 835 375 863 q 399 821 390 828 q 411 804 407 814 q 425 769 418 789 q 443 731 432 750 q 501 644 468 688 q 561 561 533 600 q 590 599 582 576 q 610 642 599 622 q 622 665 615 651 q 638 693 629 679 q 672 740 651 713 q 710 792 692 767 q 763 874 738 832 q 821 958 789 915 l 1051 958 q 1058 931 1054 947 q 1061 900 1061 914 q 1061 584 1061 715 q 1060 365 1061 453 q 1059 224 1060 276 q 1058 145 1058 172 q 1057 110 1057 118 q 1057 100 1057 101 q 1056 74 1057 96 q 1057 38 1054 51 q 1065 4 1060 24 q 1069 -19 1069 -15 m 219 593 q 203 607 219 606 q 181 608 188 608 q 158 608 172 608 q 144 593 144 608 q 149 583 144 588 q 156 576 153 578 l 208 576 q 219 593 219 585 m 229 464 q 226 488 229 469 q 222 521 224 507 q 219 538 221 531 q 215 550 218 546 q 199 560 208 560 q 182 561 190 561 q 161 560 171 561 q 146 547 151 558 q 140 526 142 540 q 135 499 138 513 q 133 473 133 485 q 132 460 132 461 q 143 441 132 449 q 156 431 154 433 l 208 431 q 215 438 211 436 q 222 442 218 440 q 227 449 225 444 q 229 464 229 453 m 204 517 q 182 492 204 492 q 163 501 167 492 q 160 517 160 510 q 165 532 160 524 q 181 540 169 540 q 198 532 192 540 q 204 517 204 524 z "},"N":{"ha":976,"x_min":71,"x_max":981,"o":"m 981 703 q 980 692 981 700 q 978 672 979 683 q 974 647 976 660 q 971 624 972 633 l 974 436 l 965 -4 q 957 -26 965 -15 q 938 -47 949 -36 q 918 -67 928 -57 q 907 -86 908 -76 q 906 -103 906 -94 q 907 -122 907 -112 q 904 -142 907 -132 q 893 -158 901 -151 q 861 -138 868 -156 q 851 -101 854 -121 q 839 -65 847 -82 q 803 -46 831 -49 q 776 -24 793 -36 q 747 3 758 -12 q 529 293 636 146 q 310 588 422 440 l 308 6 q 305 -11 306 -1 q 299 -28 304 -21 q 287 -33 294 -31 q 275 -37 279 -35 q 263 -57 271 -46 q 254 -74 254 -68 l 254 -189 q 256 -194 254 -193 q 258 -197 257 -196 q 259 -225 261 -207 q 251 -254 257 -243 q 239 -261 249 -261 q 215 -244 221 -261 q 207 -217 208 -226 l 222 -112 q 214 -85 218 -100 q 194 -64 210 -71 q 178 -86 182 -74 q 174 -112 175 -99 q 172 -137 174 -125 q 163 -158 171 -150 q 149 -156 158 -158 q 136 -147 140 -153 q 122 -121 125 -135 q 115 -93 118 -107 q 106 -66 113 -79 q 85 -40 100 -53 q 76 -30 82 -37 q 71 -15 71 -22 q 74 501 71 283 q 79 858 76 719 l 85 889 l 85 950 q 92 960 85 957 q 108 964 99 963 q 124 965 117 965 q 135 964 132 964 q 144 964 136 964 q 167 963 151 964 q 211 963 183 963 q 282 963 239 963 q 301 949 292 961 q 317 931 310 938 q 376 852 346 892 q 436 772 406 813 q 485 708 458 743 q 542 633 513 672 q 600 556 571 594 q 653 485 629 518 q 691 431 669 463 q 738 365 713 400 q 740 376 740 371 q 739 386 739 381 q 738 401 739 397 q 729 415 738 406 l 739 547 q 735 568 739 560 q 726 585 732 576 q 710 604 719 593 q 688 635 700 615 q 702 651 693 643 q 722 671 711 660 q 727 669 724 671 q 736 667 731 667 l 736 735 l 754 899 q 756 903 754 903 q 758 907 757 904 q 760 934 757 919 q 767 965 763 949 q 778 996 772 981 q 788 1024 783 1011 q 811 956 799 990 q 835 888 824 922 q 849 910 849 893 q 858 942 850 928 q 860 936 860 939 q 863 931 860 933 q 868 933 867 931 q 890 983 879 958 q 903 1032 900 1007 q 906 1038 904 1035 q 911 1040 908 1040 q 912 1035 911 1038 q 913 1029 913 1032 q 914 1010 911 1022 q 918 986 917 997 q 924 946 921 967 q 928 904 928 925 q 927 896 928 901 q 922 886 926 890 l 926 883 q 939 903 935 892 q 939 890 939 897 q 942 875 939 882 q 958 896 951 882 q 969 921 964 910 l 981 703 z "},"O":{"ha":1099,"x_min":53,"x_max":1114,"o":"m 1114 446 q 1110 375 1114 406 q 1096 315 1106 344 q 1072 256 1086 286 q 1038 183 1058 225 q 1026 168 1035 179 q 1007 144 1018 157 q 984 116 996 131 q 963 90 972 101 q 949 70 956 83 q 935 50 942 57 q 913 32 926 40 q 890 15 900 24 q 869 -3 879 8 q 849 -24 860 -15 q 835 -29 844 -26 q 819 -39 825 -32 q 805 -76 808 -54 q 801 -114 801 -97 l 811 -212 q 807 -242 811 -224 q 788 -261 803 -261 q 765 -246 772 -261 q 758 -219 758 -231 q 768 -169 758 -203 q 778 -87 778 -136 q 775 -55 778 -65 q 766 -40 772 -44 q 749 -37 760 -36 q 721 -37 738 -37 q 704 -43 710 -37 q 690 -64 699 -49 q 676 -75 688 -71 q 657 -90 664 -79 q 649 -114 650 -103 q 649 -135 649 -125 q 647 -154 649 -144 q 635 -174 644 -164 q 625 -174 632 -175 q 614 -168 618 -172 q 594 -130 599 -154 q 583 -87 590 -106 q 559 -58 579 -71 q 526 -44 539 -44 q 502 -53 517 -44 q 481 -79 488 -61 q 478 -99 478 -87 q 478 -115 478 -111 l 488 -246 q 483 -282 488 -265 q 454 -299 478 -299 q 435 -292 442 -299 q 427 -278 429 -286 q 425 -261 425 -269 q 425 -247 425 -253 l 440 -94 q 438 -75 440 -89 q 429 -48 435 -61 q 415 -24 424 -35 q 393 -14 406 -14 q 367 -26 382 -14 q 349 -51 351 -37 q 344 -79 346 -64 q 336 -107 343 -94 q 328 -113 335 -111 q 318 -115 322 -115 q 304 -114 311 -115 q 294 -101 297 -112 q 290 -44 292 -74 q 286 15 289 -14 q 264 50 283 38 q 229 71 244 63 q 205 94 217 78 q 182 121 193 110 q 149 156 167 139 q 122 193 132 174 q 99 242 111 214 q 77 295 88 269 q 60 340 67 321 q 53 363 53 360 l 53 547 q 60 574 53 551 q 72 610 68 597 q 113 706 92 665 q 168 790 133 746 q 247 867 201 833 q 321 917 292 900 q 370 938 340 928 q 425 954 400 947 q 501 971 461 965 q 581 976 540 976 q 690 965 632 976 q 806 929 749 954 q 919 862 864 904 q 1022 757 975 819 q 1054 700 1043 729 q 1076 644 1065 671 q 1094 602 1083 629 q 1108 550 1104 575 q 1111 521 1110 538 q 1113 488 1113 504 q 1114 460 1114 472 q 1114 446 1114 449 m 863 596 q 848 638 857 614 q 825 686 839 661 q 793 735 811 711 q 750 779 775 760 q 744 782 747 781 q 738 783 740 783 q 719 742 729 764 q 697 695 708 719 q 676 646 686 671 q 658 599 665 621 q 654 588 654 596 l 654 578 l 774 578 q 787 579 776 578 q 811 583 797 581 q 839 590 825 586 q 863 596 853 593 m 643 407 q 629 440 638 422 q 611 475 621 458 q 592 507 601 492 q 578 531 583 522 q 549 469 565 500 q 517 404 533 438 l 643 407 m 496 571 q 476 615 489 589 q 448 667 463 640 q 419 715 433 693 q 393 750 404 738 q 359 715 378 740 q 324 660 340 690 q 296 601 307 631 q 285 556 285 572 q 286 550 285 551 q 288 549 286 549 l 378 546 q 411 548 393 546 q 447 553 429 550 q 477 560 464 556 q 496 571 490 565 m 969 438 q 963 503 969 469 q 953 560 957 538 q 913 461 949 515 q 824 368 876 407 l 824 360 q 828 335 824 344 q 833 317 833 325 q 822 300 832 308 q 782 279 811 292 l 778 283 l 769 350 q 737 340 758 346 q 691 330 715 335 q 645 322 667 325 q 611 319 624 319 l 549 319 l 549 261 l 522 261 q 494 261 511 261 q 468 268 476 261 q 470 295 469 282 q 472 319 471 308 q 407 323 436 319 q 342 344 378 326 q 326 326 335 338 q 314 315 318 315 q 295 322 310 315 q 274 336 281 329 l 304 369 q 266 394 286 378 q 228 432 246 411 q 197 474 210 453 q 183 511 185 494 q 179 488 181 501 q 178 468 178 474 q 191 381 178 428 q 219 307 204 333 q 251 263 232 285 q 294 222 271 242 q 342 188 318 203 q 388 163 367 172 q 400 189 396 175 q 415 213 404 203 q 460 190 438 203 q 459 166 460 179 q 460 142 458 153 l 651 142 l 651 161 q 650 171 651 165 q 649 183 649 176 q 688 197 669 190 q 724 206 706 203 q 738 177 731 192 q 751 149 744 163 l 760 149 q 799 168 778 157 q 839 193 819 179 q 876 222 858 207 q 903 256 893 238 q 890 267 897 261 q 881 278 883 272 q 900 310 896 294 q 919 325 904 325 q 933 324 924 325 q 949 319 942 322 q 957 343 953 328 q 964 375 961 358 q 968 408 967 392 q 969 438 969 425 z "},"P":{"ha":833,"x_min":47,"x_max":871,"o":"m 871 619 q 871 594 871 608 q 863 561 871 581 q 847 522 853 539 q 833 488 840 504 q 814 451 825 471 q 783 404 803 431 q 747 370 768 382 q 710 339 726 358 q 704 323 704 332 q 701 304 704 314 q 694 292 699 299 q 688 276 690 285 q 687 249 685 267 q 678 217 689 231 q 667 212 675 214 q 653 210 658 210 q 642 222 644 213 q 642 231 642 224 q 640 248 642 239 q 635 265 639 257 q 622 272 631 272 q 613 266 617 272 q 605 251 608 260 q 599 235 601 243 q 597 224 597 226 q 594 206 596 215 q 590 188 593 197 l 603 106 q 598 81 610 94 q 578 68 586 68 q 556 78 563 68 q 548 100 550 88 q 547 124 546 113 q 547 140 547 136 q 547 156 547 143 q 543 184 546 169 q 535 210 540 199 q 522 222 531 222 q 512 219 518 222 q 501 217 506 217 q 488 222 493 217 q 479 233 483 226 q 471 247 475 239 q 458 260 467 254 q 414 238 440 247 q 409 210 411 222 q 390 199 407 199 q 375 208 379 199 q 368 229 371 218 q 362 250 365 240 q 347 260 358 260 l 310 260 l 310 25 q 311 21 310 19 q 314 22 313 22 q 311 -2 311 13 q 304 -24 311 -17 q 276 -49 293 -35 q 254 -62 260 -62 q 228 -58 250 -62 q 190 -50 206 -53 q 182 -61 185 -53 q 176 -96 178 -76 q 174 -121 174 -115 l 185 -239 q 181 -270 185 -251 q 157 -289 178 -289 q 140 -283 146 -289 q 131 -271 133 -278 q 127 -257 128 -264 q 126 -247 126 -250 q 128 -224 126 -244 q 134 -180 131 -204 q 140 -135 138 -156 q 142 -112 142 -115 q 139 -86 142 -97 q 119 -58 136 -75 q 119 -47 119 -53 q 114 -35 118 -40 q 90 -34 103 -33 q 67 -35 78 -35 q 49 20 51 -10 q 47 76 47 50 q 48 93 47 78 q 49 127 49 108 q 51 164 50 146 q 54 190 53 182 q 53 217 56 201 q 50 236 50 232 l 50 521 l 60 658 l 60 857 q 62 869 60 861 q 64 885 64 878 q 63 924 67 904 q 61 965 60 944 q 67 974 61 972 q 78 976 72 976 l 517 975 q 555 970 532 974 q 597 961 578 967 q 627 951 608 958 q 668 935 646 944 q 713 912 690 925 q 757 882 736 899 q 776 868 764 876 q 800 850 789 860 q 825 817 813 839 q 844 776 838 794 q 851 753 847 767 q 857 726 854 739 q 867 674 863 700 q 871 619 871 649 m 614 617 q 610 650 614 628 q 599 694 607 672 q 577 733 590 715 q 546 750 564 750 q 527 756 536 751 q 511 761 518 760 q 499 763 506 761 q 488 765 492 765 l 424 765 q 397 768 418 765 q 360 769 375 771 q 333 766 346 768 q 308 765 319 764 l 297 675 l 297 472 l 465 472 q 497 483 471 472 q 542 506 524 494 q 568 532 557 517 q 586 558 579 547 q 595 570 590 565 q 603 582 600 575 q 610 601 607 590 q 614 617 614 613 z "},"Q":{"ha":1101,"x_min":50,"x_max":1117,"o":"m 1117 93 q 1105 67 1117 82 q 1078 38 1093 53 q 1049 10 1063 22 q 1032 -6 1036 -1 q 1028 -11 1031 -7 q 1022 -19 1025 -15 q 1015 -26 1018 -22 q 992 -47 1001 -36 q 975 -57 983 -57 q 944 -42 960 -57 q 915 -10 929 -28 q 888 22 900 7 q 867 36 875 36 q 853 31 864 36 q 827 17 842 25 q 797 0 813 8 q 772 -14 782 -8 q 753 -21 765 -17 q 732 -31 740 -25 q 709 -59 717 -40 q 701 -93 701 -78 l 717 -185 q 714 -209 719 -197 q 696 -221 708 -221 q 681 -214 685 -221 q 677 -199 678 -207 q 678 -182 676 -190 q 679 -171 679 -174 l 679 -106 q 668 -67 679 -83 q 654 -51 657 -51 q 630 -48 644 -49 q 610 -47 615 -47 q 576 -51 585 -47 q 565 -65 567 -56 q 563 -91 563 -75 q 554 -132 563 -107 l 538 -132 q 529 -127 533 -132 q 522 -117 525 -122 q 516 -106 518 -111 q 514 -100 514 -101 q 508 -68 511 -89 q 494 -36 504 -47 q 472 -19 488 -26 q 449 -11 456 -11 q 428 -18 436 -11 q 413 -34 419 -25 q 404 -53 407 -43 q 401 -72 401 -64 l 414 -201 q 413 -214 414 -206 q 408 -231 411 -222 q 399 -245 406 -239 q 382 -251 392 -251 q 365 -246 371 -251 q 357 -233 360 -240 q 353 -217 354 -225 q 353 -204 353 -210 l 368 -58 q 361 -20 368 -43 q 342 10 354 3 q 332 11 338 11 q 324 13 326 11 q 283 32 306 15 q 246 61 261 49 q 224 79 238 72 q 163 127 193 97 q 117 188 133 157 q 98 230 107 207 q 81 276 89 253 q 71 313 76 292 q 60 352 65 333 q 53 385 56 371 q 50 403 50 400 l 50 554 q 58 578 50 558 q 69 614 65 599 q 88 660 76 636 q 113 704 100 683 q 140 743 126 725 q 163 775 153 761 q 204 824 178 794 q 254 878 231 854 q 270 890 260 885 q 288 899 281 894 q 303 908 294 903 q 324 917 313 913 q 333 919 326 918 q 342 921 339 919 q 359 932 349 924 q 382 944 369 940 q 409 950 397 951 q 431 951 421 949 q 513 968 475 965 q 594 971 551 971 q 650 969 625 971 q 699 961 675 967 q 751 947 724 956 q 815 926 779 939 q 848 910 831 922 q 882 885 865 897 q 913 865 894 876 q 949 835 932 853 q 988 792 969 815 q 1024 747 1006 768 q 1028 738 1026 744 q 1033 726 1029 731 q 1080 650 1068 688 q 1099 593 1092 613 q 1102 572 1101 585 q 1106 547 1103 558 q 1112 502 1110 524 q 1114 456 1114 481 q 1114 415 1114 428 q 1112 392 1114 403 q 1106 365 1110 382 q 1093 310 1101 347 q 1074 253 1088 282 q 1044 197 1060 225 q 1037 190 1042 194 q 1025 178 1032 185 q 1039 163 1029 172 q 1060 144 1049 153 q 1084 126 1072 135 q 1104 114 1096 118 q 1114 103 1111 111 q 1117 93 1117 96 m 878 494 q 871 542 878 515 q 851 597 864 569 q 822 647 839 624 q 783 682 804 669 q 731 719 760 697 q 683 749 701 740 q 624 764 647 765 q 579 763 600 763 q 537 761 558 763 q 479 749 515 760 q 450 733 464 744 q 428 717 436 721 q 383 682 404 707 q 350 638 363 657 q 319 578 331 608 q 314 567 317 572 q 310 558 311 561 q 303 513 306 531 q 301 485 301 496 q 300 465 300 474 q 300 444 300 456 q 299 422 300 439 q 300 394 299 404 q 308 371 303 383 q 317 351 314 358 q 338 307 324 329 q 368 269 353 285 q 399 235 381 254 q 428 211 417 215 q 519 178 468 192 q 629 164 571 164 q 653 167 635 164 q 683 172 672 169 q 649 208 668 192 q 613 244 631 225 q 589 272 601 257 q 569 299 576 288 q 563 313 567 304 q 560 325 560 321 q 577 353 560 331 q 617 400 594 375 q 661 444 639 425 q 692 464 683 464 q 719 456 704 464 q 751 438 735 449 q 780 417 767 428 q 801 397 793 406 q 827 369 814 386 q 851 344 840 353 q 860 360 854 353 q 869 372 865 368 q 872 411 871 390 q 875 450 874 432 q 877 481 876 468 q 878 494 878 493 z "},"R":{"ha":913,"x_min":57,"x_max":919,"o":"m 919 -7 q 908 -26 919 -19 q 884 -34 897 -32 q 859 -36 871 -36 q 846 -37 847 -36 q 801 -49 821 -46 q 769 -71 781 -51 q 764 -93 765 -78 q 763 -114 763 -108 l 778 -258 q 773 -287 778 -268 q 749 -306 768 -306 q 731 -299 738 -306 q 721 -285 724 -293 q 717 -268 718 -276 q 717 -257 717 -260 l 729 -126 q 717 -87 729 -103 q 685 -65 704 -71 q 646 -10 667 -39 q 607 43 625 18 q 594 66 601 51 q 581 92 588 81 q 542 146 565 115 q 500 201 518 176 q 481 239 490 215 q 454 282 472 263 l 296 282 l 296 11 q 297 -12 296 7 q 292 -47 297 -32 q 283 -58 290 -53 q 274 -68 276 -62 q 263 -88 267 -81 q 258 -101 260 -96 q 258 -112 257 -107 q 258 -128 258 -118 l 268 -257 q 263 -294 268 -276 q 233 -311 258 -311 q 215 -305 221 -311 q 207 -290 210 -299 q 204 -273 204 -282 q 204 -258 204 -264 l 219 -106 q 217 -84 219 -97 q 208 -58 214 -71 q 194 -36 203 -46 q 172 -26 185 -26 q 146 -38 161 -26 q 128 -62 131 -50 q 124 -92 126 -76 q 117 -119 122 -107 q 108 -126 114 -124 q 97 -128 103 -128 q 83 -126 90 -128 q 75 -114 76 -124 q 72 -76 72 -99 q 68 -35 71 -54 q 61 0 65 -19 q 57 25 57 19 l 61 860 q 64 890 64 875 q 64 921 64 904 q 61 932 61 924 q 76 965 61 963 q 124 967 92 967 q 133 1013 129 986 q 131 1061 136 1040 q 160 1022 146 1042 q 186 983 174 1003 q 189 1012 189 992 q 189 1038 189 1032 q 189 1085 189 1056 q 179 1158 189 1114 l 285 999 q 294 1026 286 1007 q 311 1065 301 1044 q 331 1106 321 1086 q 350 1135 342 1125 q 356 1126 354 1135 q 357 1108 357 1118 q 358 1089 357 1097 q 364 1082 360 1081 q 372 1055 368 1069 q 376 1028 376 1040 q 376 1010 376 1021 q 385 993 375 1000 q 390 1012 388 1003 q 396 1031 393 1021 l 435 988 q 446 1031 442 1007 q 447 1074 450 1054 q 472 1048 460 1068 q 489 1013 485 1028 q 506 1032 500 1019 q 515 1057 513 1044 q 542 1028 526 1046 q 569 990 558 1011 q 578 981 574 981 q 586 981 583 981 q 601 982 596 981 l 601 964 q 620 956 611 960 q 639 950 629 953 q 663 947 650 947 q 690 940 675 946 q 726 926 701 938 q 772 896 750 914 q 795 883 779 890 q 822 864 811 875 q 838 847 829 858 q 857 823 847 836 q 876 795 867 810 q 890 768 885 781 q 906 732 900 747 q 913 705 911 717 q 915 683 915 693 q 915 658 915 672 q 910 586 915 624 q 889 512 904 549 q 847 441 874 475 q 779 378 821 407 q 759 362 771 372 q 736 344 747 351 q 712 332 725 338 q 688 319 699 326 q 708 286 697 303 q 729 257 719 269 q 801 150 763 208 q 879 38 840 92 q 904 13 889 24 q 919 -7 919 3 m 665 661 q 665 674 665 667 q 664 686 665 681 q 635 732 658 710 q 593 757 613 754 q 569 759 583 758 q 542 760 556 760 q 517 761 528 761 q 504 761 506 761 l 296 761 l 296 683 l 307 610 l 307 483 l 518 483 q 556 491 535 483 q 597 513 578 499 q 632 546 617 526 q 650 589 647 565 q 657 605 653 597 q 661 619 661 613 q 664 643 663 628 q 665 661 665 658 z "},"S":{"ha":811,"x_min":39,"x_max":822,"o":"m 822 199 q 819 188 822 196 q 815 174 817 179 q 797 121 811 150 q 767 65 783 92 q 749 41 761 57 q 725 8 738 25 q 703 -28 713 -10 q 693 -61 694 -47 q 688 -68 692 -64 q 681 -76 683 -72 q 675 -90 678 -82 q 672 -104 672 -99 l 672 -125 q 665 -141 672 -128 q 650 -154 658 -154 l 635 -154 q 628 -149 632 -153 q 624 -140 624 -146 l 624 -103 q 618 -92 624 -97 q 607 -87 613 -87 q 594 -97 600 -87 q 584 -120 589 -107 q 576 -146 579 -133 q 572 -164 574 -158 l 578 -246 q 572 -274 578 -257 q 549 -292 567 -292 q 532 -285 539 -292 q 517 -264 521 -272 q 515 -249 514 -256 q 518 -238 515 -243 q 521 -228 521 -233 l 521 -167 q 515 -144 521 -156 q 500 -132 510 -132 q 492 -133 496 -132 q 481 -133 488 -135 q 467 -128 472 -133 q 459 -117 463 -124 q 452 -103 456 -111 q 442 -87 449 -96 q 419 -99 431 -92 q 396 -103 408 -106 q 392 -122 392 -111 q 381 -142 392 -132 l 360 -142 q 349 -124 356 -139 q 343 -107 343 -110 l 343 -89 q 333 -81 340 -81 q 318 -78 326 -81 l 268 -72 q 260 -91 261 -82 q 256 -110 258 -100 l 268 -290 q 267 -298 269 -293 q 263 -307 265 -303 l 218 -307 q 213 -297 215 -303 q 210 -285 211 -292 l 219 -122 q 212 -103 219 -115 q 193 -82 204 -92 l 193 -68 l 178 -32 l 178 -15 q 154 5 176 -14 q 106 46 132 24 q 60 88 81 68 q 39 113 39 108 q 56 137 39 117 q 93 181 72 157 q 133 227 114 206 q 158 257 153 249 q 206 237 182 256 q 247 207 229 218 q 323 169 281 186 q 408 147 365 153 l 501 144 q 519 146 508 146 q 536 153 529 146 q 565 195 554 167 q 575 247 575 224 q 569 277 575 265 q 539 308 563 289 q 515 318 535 313 q 483 331 496 324 q 442 349 464 339 q 399 368 419 360 q 344 383 376 375 q 282 406 311 390 q 274 408 279 408 q 261 410 268 407 q 213 433 242 418 q 156 472 183 447 q 129 503 144 483 q 103 542 114 524 q 72 592 88 565 q 54 643 57 618 l 63 739 q 94 817 72 776 q 149 893 117 857 q 163 904 154 900 q 179 915 172 908 q 227 948 207 942 q 267 958 247 954 q 294 965 281 961 q 321 972 307 969 q 342 977 331 975 q 363 982 353 979 l 522 971 q 581 954 553 961 q 635 938 608 947 q 691 915 663 928 q 751 879 719 901 q 763 872 756 876 q 776 863 769 868 q 789 853 783 858 q 794 843 794 849 q 789 827 794 838 q 776 806 783 817 q 762 784 769 794 q 750 768 754 774 q 719 721 733 743 q 690 675 704 699 l 675 675 q 650 690 675 675 q 592 722 625 704 q 525 753 558 739 q 475 768 492 768 l 381 768 q 333 742 354 768 q 310 686 311 715 q 316 652 308 667 q 335 627 324 638 q 360 610 347 617 q 381 599 372 603 q 401 591 390 596 q 422 583 413 586 q 533 552 475 568 q 645 513 592 536 q 740 458 699 490 q 803 378 782 425 q 815 344 807 365 q 822 318 822 324 l 822 199 z "},"T":{"ha":1089,"x_min":44,"x_max":1122,"o":"m 1122 463 q 1059 418 1075 444 q 1043 349 1043 392 l 1053 250 q 1049 220 1053 239 q 1029 201 1044 201 q 1006 218 1013 201 q 1000 243 1000 235 q 1010 294 1000 261 q 1019 375 1019 326 q 1019 399 1019 385 q 1008 422 1019 414 q 907 426 956 425 q 814 450 858 426 q 839 506 826 476 q 863 565 851 536 q 882 604 869 581 q 904 654 894 628 q 915 685 908 665 q 921 710 921 704 q 912 721 921 714 q 896 735 903 728 q 888 751 890 742 q 882 768 886 760 q 874 772 879 772 l 679 772 l 679 692 q 677 674 679 689 q 672 642 675 660 q 666 610 668 625 q 664 593 664 594 l 664 244 l 668 214 l 668 119 l 664 93 l 664 -50 q 654 -69 664 -58 q 633 -96 644 -81 q 626 -121 626 -107 q 625 -142 625 -135 l 635 -272 q 630 -308 635 -292 q 601 -325 625 -325 q 583 -319 589 -325 q 574 -304 576 -312 q 572 -287 572 -296 q 572 -274 572 -279 l 585 -140 q 584 -126 585 -135 q 581 -114 583 -118 q 570 -107 576 -110 q 560 -99 564 -104 q 550 -84 554 -92 q 542 -69 546 -76 q 538 -67 539 -68 q 532 -65 538 -65 q 510 -72 525 -65 q 493 -90 496 -79 q 490 -108 490 -99 q 488 -124 490 -117 q 481 -137 486 -132 q 465 -142 476 -142 q 451 -140 458 -142 q 443 -128 444 -137 q 440 -91 440 -112 q 436 -50 439 -69 q 432 -37 435 -44 q 429 -26 429 -31 l 429 474 l 435 501 l 436 619 q 434 635 436 625 q 432 651 432 646 l 432 750 q 429 761 432 754 q 419 775 426 768 l 369 775 l 269 782 q 231 779 246 782 q 189 769 217 776 l 118 749 q 99 763 111 750 q 74 792 86 775 q 53 827 63 810 q 44 854 44 844 q 45 866 44 856 q 47 889 46 876 q 51 915 49 901 q 56 935 53 928 q 65 943 58 942 q 79 946 72 944 l 283 947 q 307 946 285 947 q 361 943 329 944 q 431 940 393 942 q 501 936 469 938 q 556 933 533 935 q 579 932 578 932 l 644 932 q 679 937 658 933 q 706 940 700 940 l 789 946 q 808 943 793 946 q 828 940 824 940 l 871 940 q 872 963 874 954 q 891 974 879 967 q 908 981 903 981 l 1017 975 q 1025 941 1022 960 q 1028 904 1028 922 q 1029 872 1029 886 q 1029 853 1029 858 q 1051 653 1032 753 q 1122 463 1069 554 z "},"U":{"ha":931,"x_min":49,"x_max":943,"o":"m 943 918 q 942 897 943 915 q 940 856 942 879 q 937 809 939 832 q 933 775 935 786 l 931 449 q 915 317 921 382 q 894 186 910 253 q 884 160 892 176 q 866 124 876 143 q 843 87 856 106 q 817 54 831 68 q 795 35 810 44 q 767 17 781 26 q 757 6 761 14 q 749 -6 753 -1 q 737 -12 743 -10 q 728 -19 731 -14 q 713 -56 717 -35 q 708 -96 708 -78 l 719 -194 q 715 -224 719 -206 q 694 -242 711 -242 q 672 -226 678 -242 q 665 -200 665 -210 q 676 -151 665 -183 q 686 -69 686 -118 q 683 -36 686 -47 q 674 -21 681 -25 q 656 -17 667 -17 q 629 -18 646 -18 q 612 -24 618 -18 q 599 -46 606 -31 q 583 -56 596 -53 q 564 -71 571 -60 q 556 -96 557 -85 q 556 -117 556 -107 q 555 -136 557 -126 q 543 -156 553 -146 q 532 -154 539 -156 q 521 -150 525 -153 q 501 -111 506 -136 q 492 -68 497 -86 q 467 -40 486 -53 q 433 -26 447 -26 q 410 -35 424 -26 q 389 -61 396 -43 q 386 -81 386 -68 q 386 -97 386 -93 l 396 -226 q 390 -263 396 -246 q 361 -281 385 -281 q 342 -274 349 -281 q 334 -260 336 -268 q 332 -242 332 -251 q 332 -228 332 -233 l 347 -75 q 344 -53 347 -67 q 336 -27 342 -40 q 322 -4 331 -14 q 300 6 313 6 q 274 -7 289 6 q 256 -32 258 -19 q 251 -60 253 -46 q 244 -89 250 -75 q 236 -95 242 -93 q 225 -97 231 -97 q 211 -95 218 -97 q 203 -83 204 -93 q 198 -25 200 -56 q 193 33 196 6 q 189 48 193 39 q 181 61 185 57 q 143 104 164 83 q 111 149 122 125 q 98 184 106 160 q 82 237 90 208 q 67 294 74 265 q 56 347 60 324 q 56 379 53 358 q 61 419 58 400 q 60 467 64 442 q 54 518 57 493 l 49 822 q 50 839 49 824 q 53 874 51 854 q 56 915 54 894 q 57 951 57 936 q 61 957 60 954 q 65 963 63 960 l 261 963 q 282 951 271 963 q 281 915 283 935 q 276 876 278 896 q 277 838 275 861 q 283 799 279 815 l 281 414 q 286 380 282 399 q 296 340 290 361 q 299 315 299 329 q 304 286 299 301 q 342 225 319 247 q 390 191 364 203 q 442 176 415 179 q 494 174 469 174 q 543 184 515 174 q 596 211 571 194 q 638 247 621 228 q 654 286 654 267 q 656 299 653 292 q 658 313 658 306 q 662 333 660 322 q 667 353 664 343 q 673 383 669 365 q 679 418 676 401 q 684 447 682 435 q 686 463 686 460 l 686 511 l 696 579 l 694 963 q 699 960 697 958 q 706 963 700 963 l 929 963 q 942 940 940 951 q 943 918 943 928 m 846 651 l 846 674 l 815 674 l 815 692 l 846 692 l 846 714 l 815 714 l 815 732 l 846 732 l 846 754 l 815 754 l 815 775 q 846 774 833 778 l 846 794 q 831 794 839 796 q 815 799 824 792 l 815 813 l 818 815 l 846 815 l 846 836 l 815 836 l 815 857 l 846 857 l 846 879 l 815 879 l 815 897 l 846 897 l 846 919 l 815 919 l 815 939 l 846 939 l 846 960 l 775 960 l 775 918 l 806 918 l 806 900 l 775 900 l 775 878 l 806 878 l 806 857 l 775 857 l 775 836 l 806 836 l 806 818 l 775 818 l 775 796 l 806 796 l 806 775 l 775 775 l 775 753 l 806 753 l 806 735 l 775 735 l 775 713 l 806 713 l 806 693 l 775 693 l 775 671 l 806 671 l 806 653 l 775 653 l 775 631 l 806 631 l 806 611 l 846 611 l 846 632 l 815 632 l 815 651 l 846 651 m 846 578 l 846 596 q 830 603 842 603 q 811 603 818 603 q 788 603 801 603 q 775 588 775 603 q 788 572 775 572 q 811 571 801 571 q 827 572 814 571 q 846 578 840 572 m 860 457 q 859 470 860 460 q 856 494 858 481 q 852 521 854 507 q 846 544 850 535 q 831 555 842 554 q 811 556 819 556 q 794 555 807 556 q 778 547 782 554 q 774 532 776 544 q 769 504 772 519 q 765 474 767 489 q 763 454 763 460 q 768 439 763 444 q 781 431 774 433 q 797 428 789 429 q 811 428 806 428 q 826 428 817 428 q 842 431 835 428 q 854 440 849 433 q 860 457 860 446 m 833 510 q 826 492 833 499 q 811 486 818 486 q 794 494 800 486 q 788 510 788 503 q 794 526 788 518 q 811 535 800 535 q 828 526 822 535 q 833 510 833 517 z "},"V":{"ha":969,"x_min":53,"x_max":1000,"o":"m 1000 875 q 993 838 999 860 q 988 813 988 817 q 999 803 988 803 l 999 789 l 918 572 q 908 553 911 563 q 901 533 904 543 q 870 465 885 506 q 840 394 856 424 q 820 353 831 378 q 799 301 810 328 q 779 245 789 274 q 760 193 769 217 q 726 115 747 161 q 688 26 704 69 q 685 15 685 22 q 683 0 685 7 q 678 -8 682 -3 q 675 -18 675 -14 q 672 -36 674 -25 q 669 -57 671 -47 q 663 -74 667 -67 q 654 -82 660 -82 q 649 -85 651 -83 q 640 -86 646 -86 q 626 -81 635 -86 q 622 -58 622 -68 q 622 -41 622 -49 q 619 -28 622 -33 q 606 -18 617 -22 q 581 -53 588 -28 q 568 -97 574 -78 q 568 -121 565 -108 q 574 -147 571 -133 q 577 -175 576 -161 q 572 -203 578 -189 q 563 -216 569 -210 q 546 -222 556 -222 q 532 -218 536 -222 q 522 -207 528 -214 q 515 -193 517 -200 q 516 -174 513 -186 q 519 -156 519 -161 l 519 -100 q 514 -77 519 -92 q 497 -62 508 -62 q 490 -64 493 -62 q 482 -65 486 -65 q 456 -45 469 -65 q 431 2 443 -25 q 408 56 418 29 q 392 96 397 82 q 346 212 368 154 q 300 328 324 269 q 263 415 286 360 q 214 526 239 469 q 161 650 186 588 q 113 775 136 713 q 108 792 110 782 q 104 810 107 803 q 89 836 97 824 q 76 864 81 849 q 65 911 71 886 q 53 960 60 936 q 63 967 56 963 q 76 971 71 971 q 91 969 78 971 q 119 965 104 967 q 147 961 135 963 q 163 960 160 960 l 293 960 q 308 948 300 960 q 317 933 315 936 q 351 864 339 899 q 378 794 364 829 q 392 765 383 783 q 407 728 400 746 q 419 694 413 713 q 434 656 426 675 q 449 618 442 636 q 461 586 456 600 q 484 528 471 558 q 509 464 497 497 q 531 397 521 431 q 546 333 540 364 q 557 319 546 328 q 602 426 581 372 q 647 535 624 481 q 660 571 654 550 q 672 603 667 592 q 678 610 676 607 q 678 616 679 613 q 679 622 678 619 q 703 666 689 640 q 729 715 718 692 q 753 774 742 743 q 778 836 764 806 q 808 894 792 865 q 840 950 825 922 q 842 957 842 953 q 842 965 842 961 q 845 968 844 967 q 849 972 846 969 q 857 994 850 981 q 865 1022 864 1008 q 868 1017 865 1019 q 874 1011 871 1015 q 872 999 871 1007 q 882 983 874 992 q 887 986 883 983 q 894 992 890 989 q 897 975 897 986 q 896 953 897 969 q 892 922 894 936 q 889 917 890 919 q 886 913 888 915 l 874 850 q 868 843 872 846 q 864 836 864 840 l 864 828 q 866 824 867 825 q 868 821 865 824 q 882 836 876 829 q 892 850 888 843 q 894 846 894 847 q 897 842 894 844 q 907 849 903 842 q 931 891 919 867 q 953 936 942 915 q 970 963 960 947 q 981 990 981 979 l 990 990 l 990 976 q 987 966 990 972 q 981 953 983 960 q 974 917 975 939 q 972 890 972 894 l 972 882 q 985 878 978 879 q 1000 875 993 878 z "},"W":{"ha":1481,"x_min":43,"x_max":1524,"o":"m 1524 925 q 1518 910 1524 921 q 1506 889 1513 900 q 1474 819 1489 856 q 1446 746 1460 782 q 1433 711 1440 731 q 1419 671 1426 692 q 1406 629 1413 650 q 1394 590 1399 608 q 1381 543 1390 572 q 1360 478 1372 514 q 1336 403 1349 442 q 1313 326 1324 364 q 1308 294 1310 314 q 1300 260 1307 275 q 1272 186 1288 224 q 1239 110 1256 149 q 1223 63 1229 90 q 1208 13 1217 35 q 1195 -12 1204 1 q 1181 -40 1186 -26 q 1174 -77 1174 -57 q 1161 -112 1174 -97 l 1153 -112 q 1144 -99 1144 -108 q 1142 -78 1143 -89 q 1138 -60 1142 -68 q 1124 -51 1135 -51 q 1109 -60 1114 -51 q 1101 -78 1104 -68 q 1093 -97 1097 -89 q 1083 -106 1089 -106 q 1076 -104 1078 -106 q 1069 -100 1074 -103 q 1057 -129 1057 -117 l 1057 -207 q 1057 -219 1057 -210 q 1056 -237 1057 -228 q 1050 -253 1054 -246 q 1038 -261 1046 -261 q 1028 -254 1033 -261 q 1022 -242 1022 -247 q 1023 -187 1019 -211 q 1024 -135 1026 -162 q 1017 -92 1022 -114 q 1008 -49 1011 -69 q 1002 -42 1007 -46 q 994 -31 997 -37 q 990 -11 992 -22 q 985 10 988 0 q 973 51 978 29 q 954 89 968 72 q 911 114 942 104 q 857 124 881 124 q 781 107 821 124 q 713 40 740 90 l 683 40 q 682 53 683 46 q 682 68 681 61 q 672 85 676 75 q 661 107 668 96 q 644 129 654 118 q 624 151 635 140 q 610 118 617 138 q 600 82 603 99 q 582 16 593 51 q 542 -40 571 -19 q 524 -50 536 -44 q 504 -60 511 -56 q 483 -91 483 -76 q 482 -121 482 -106 l 492 -250 q 486 -287 492 -269 q 457 -304 481 -304 q 439 -297 444 -304 q 431 -282 433 -290 q 428 -265 428 -274 q 428 -251 428 -256 l 443 -99 q 442 -90 443 -94 q 440 -82 440 -86 q 421 -56 431 -75 q 396 -32 411 -37 q 385 -31 392 -31 q 374 -28 378 -31 q 366 -12 369 -21 q 358 4 363 -3 q 353 14 356 8 q 347 25 350 19 q 325 83 336 53 q 294 168 314 114 q 288 196 290 179 q 282 224 286 213 q 238 340 263 282 q 189 458 213 399 q 183 486 185 469 q 178 514 181 503 q 162 556 171 536 q 146 599 153 576 q 129 643 139 618 q 113 690 119 668 q 108 719 110 701 q 101 751 106 736 q 88 793 96 767 q 76 838 81 819 q 68 863 74 849 q 57 889 63 876 q 47 911 51 901 q 43 924 43 921 q 44 935 43 928 q 49 949 46 942 q 76 955 60 953 q 99 957 93 957 l 218 954 q 237 951 226 951 q 257 951 247 951 q 275 945 267 950 q 288 928 283 940 q 305 885 294 908 q 322 839 315 863 q 357 740 336 794 q 392 644 378 686 q 403 601 399 626 q 413 554 407 575 q 433 593 426 568 q 440 639 440 618 q 428 704 440 667 q 375 769 415 742 q 369 779 375 774 q 381 789 372 789 q 394 784 386 789 q 415 774 403 779 q 442 763 426 768 q 476 758 457 758 q 546 773 514 758 q 602 811 578 788 q 642 865 626 835 q 663 925 658 894 q 667 940 664 932 q 674 957 671 949 l 850 954 q 876 945 867 956 q 893 919 886 935 q 906 885 900 903 q 921 854 913 868 q 972 881 946 860 q 1010 928 999 903 l 1021 928 q 1024 917 1024 926 q 1021 909 1024 913 q 1017 901 1018 906 q 1010 865 1013 886 q 1008 839 1008 843 q 1059 713 1008 764 q 1200 661 1110 663 q 1240 796 1219 721 q 1279 940 1260 871 q 1284 944 1279 942 q 1295 949 1289 947 q 1307 953 1301 951 q 1314 954 1313 954 l 1499 954 q 1515 944 1506 954 q 1524 925 1524 933 m 1154 642 q 1088 668 1124 649 q 1032 714 1053 688 q 994 787 1001 751 q 985 850 986 822 q 974 832 981 842 q 963 813 968 822 q 953 795 957 803 q 950 785 950 788 q 953 773 950 782 q 963 751 957 764 q 973 725 968 739 q 982 700 978 711 q 995 660 989 681 q 1004 621 1001 640 q 1021 615 1011 618 q 1038 610 1031 613 l 1154 642 m 960 849 q 944 842 953 846 q 928 836 935 839 q 933 824 929 831 q 936 814 936 818 l 960 849 m 1186 613 q 1147 555 1154 582 q 1139 500 1139 528 q 1140 485 1139 496 q 1140 468 1140 475 l 1186 613 m 1172 628 q 1133 617 1154 621 q 1101 607 1113 613 q 1083 598 1094 604 q 1059 583 1071 592 q 1038 565 1047 575 q 1029 546 1029 556 q 1032 534 1029 543 q 1040 513 1035 525 q 1049 488 1044 500 q 1058 465 1054 475 q 1068 439 1064 453 q 1077 413 1072 425 q 1089 391 1082 400 q 1107 381 1096 382 l 1131 439 q 1127 456 1129 446 q 1124 476 1125 467 q 1122 492 1122 485 q 1121 501 1121 500 q 1135 566 1121 528 q 1172 628 1150 604 m 1035 586 q 1024 584 1031 585 q 1014 582 1018 583 q 1019 567 1019 571 q 1028 578 1024 572 q 1035 586 1032 585 m 806 535 l 796 554 l 775 522 q 790 528 782 525 q 806 535 799 532 m 819 492 q 814 508 817 500 q 810 524 811 517 q 794 519 803 521 q 781 517 786 517 q 772 516 775 517 q 764 518 768 515 q 778 540 772 528 q 788 564 783 553 l 769 564 l 749 511 q 753 513 751 511 q 760 514 754 514 q 768 508 764 514 q 775 501 772 503 q 819 492 801 494 m 631 806 q 598 776 618 789 q 556 756 578 764 q 513 744 535 749 q 476 740 492 740 q 463 740 472 740 q 449 742 454 739 q 506 702 485 713 q 549 692 526 692 q 574 694 560 692 q 599 700 588 697 q 612 754 601 728 q 631 806 622 781 m 828 472 l 778 496 l 807 447 q 816 461 810 454 q 828 472 822 468 m 856 386 l 832 453 q 822 443 828 450 q 815 431 815 436 q 819 422 815 429 q 830 406 824 415 q 842 388 836 397 q 853 374 849 379 q 854 380 853 376 q 856 386 856 383 m 800 428 l 761 511 q 754 503 757 508 q 751 494 751 497 l 750 417 q 767 426 757 424 q 782 429 778 429 q 790 428 788 429 q 800 428 793 428 m 589 675 l 543 675 q 563 657 553 664 q 581 646 572 650 q 585 661 583 653 q 589 675 586 669 m 749 499 l 726 439 q 732 431 729 435 q 735 425 735 426 l 749 499 m 838 356 q 826 379 832 367 q 817 400 821 392 q 805 406 808 403 q 799 413 801 410 q 792 417 796 415 q 779 419 788 419 q 756 410 763 419 q 748 389 750 401 q 745 363 746 376 q 742 340 744 350 q 769 354 758 347 q 806 361 781 361 q 821 360 811 361 q 838 356 831 358 m 576 622 q 547 643 563 632 q 518 664 532 654 q 524 640 522 647 q 527 626 526 632 q 528 617 528 621 q 528 606 528 614 q 517 546 528 575 q 467 492 506 517 l 496 492 q 511 492 500 490 q 529 496 522 493 q 557 553 549 518 q 576 622 565 588 m 899 239 q 883 276 892 257 q 863 313 875 296 q 835 340 850 329 q 799 350 819 350 q 768 344 783 350 q 739 319 753 339 q 733 276 736 299 q 732 250 731 254 l 732 208 l 740 208 q 760 222 750 215 q 774 235 769 228 q 809 245 785 242 q 846 249 833 249 q 870 248 861 249 q 899 239 879 247 m 733 401 q 731 413 735 404 q 722 422 728 421 l 699 361 q 712 347 704 356 q 722 331 719 338 l 733 401 m 510 608 q 493 666 510 639 q 447 717 476 693 q 454 685 450 707 q 458 643 458 663 q 456 618 458 639 q 447 582 453 597 q 440 566 444 575 q 432 549 436 557 q 424 534 428 540 q 421 526 421 528 q 424 510 421 521 q 429 490 426 499 q 491 547 472 511 q 510 608 510 582 m 939 128 q 903 210 932 188 q 831 233 874 233 q 808 231 822 233 q 781 224 794 228 q 756 213 767 219 q 742 201 744 207 q 733 186 739 194 q 726 171 728 178 q 722 128 722 151 q 719 83 722 104 q 751 115 733 103 q 788 133 769 126 q 825 142 807 140 q 857 144 843 144 q 903 140 885 144 q 939 128 922 135 m 718 296 q 715 321 718 310 q 697 350 713 332 l 657 251 q 673 238 665 247 q 686 219 681 229 q 695 199 692 208 q 699 183 699 189 q 712 246 706 218 q 718 296 718 274 m 528 481 l 456 469 q 484 450 468 463 q 506 425 500 438 l 528 481 m 500 406 q 475 437 496 419 q 439 457 454 454 l 472 328 l 500 406 m 693 115 q 682 183 693 150 q 649 228 671 217 l 629 172 q 647 152 636 163 q 664 132 657 142 q 677 108 671 122 q 689 83 683 94 q 691 101 689 90 q 693 115 693 111 z "},"X":{"ha":944,"x_min":10,"x_max":953,"o":"m 875 371 q 815 340 850 364 q 760 286 779 315 q 734 327 747 306 q 708 367 721 349 q 717 374 710 369 q 734 383 725 379 q 752 391 743 388 q 767 394 761 394 q 793 391 776 394 q 827 383 810 388 q 858 376 844 379 q 875 371 871 372 m 953 369 l 936 360 l 892 360 q 861 352 879 360 q 824 332 843 344 q 790 303 806 319 q 768 272 775 288 l 938 36 q 935 21 935 29 q 932 6 936 13 q 910 -15 925 -6 q 888 -40 894 -25 q 883 -63 885 -50 q 875 -100 881 -76 q 870 -103 874 -101 q 863 -106 867 -106 q 852 -103 858 -106 q 843 -93 846 -100 q 842 -85 842 -90 q 842 -78 843 -81 q 835 -66 839 -72 q 832 -54 832 -60 q 815 -40 825 -49 q 800 -31 804 -31 l 792 -31 q 788 -51 788 -42 l 801 -187 q 797 -214 801 -196 q 774 -232 793 -232 q 757 -226 763 -232 q 748 -212 751 -219 q 744 -197 744 -204 q 743 -186 743 -189 l 756 -62 q 744 -26 756 -40 q 714 -6 733 -11 q 647 88 682 42 q 579 181 611 133 q 566 206 572 192 q 553 232 560 221 q 524 278 540 256 q 490 325 507 301 q 482 318 486 322 q 475 311 478 314 q 460 279 467 297 q 444 246 454 261 q 424 213 436 232 q 399 174 411 193 q 375 139 386 156 q 358 114 364 122 q 340 86 351 103 q 317 53 329 69 q 294 27 304 38 q 278 18 283 17 q 270 4 271 15 q 268 -11 269 -7 q 260 -23 265 -17 q 254 -35 256 -29 q 253 -60 253 -46 q 243 -90 254 -75 q 233 -97 240 -94 q 221 -97 226 -99 q 212 -85 213 -93 q 212 -67 211 -76 q 211 -50 213 -58 q 199 -36 210 -42 q 181 -60 183 -46 q 174 -87 179 -75 q 168 -124 167 -104 q 172 -158 169 -143 q 172 -204 175 -181 q 164 -218 171 -211 q 150 -225 157 -225 q 132 -215 139 -225 q 122 -193 125 -204 q 125 -166 121 -183 q 129 -136 129 -149 q 128 -124 129 -133 q 126 -103 128 -114 q 120 -85 124 -93 q 110 -76 117 -76 q 104 -78 107 -76 q 97 -79 101 -79 q 87 -76 93 -79 q 78 -67 81 -74 q 71 -52 75 -60 q 65 -37 67 -44 q 63 -19 64 -31 q 61 1 63 -7 q 58 11 61 6 q 56 21 56 17 q 66 51 56 33 q 90 88 76 69 q 115 122 103 107 q 133 146 128 138 q 155 177 142 160 q 179 211 168 194 q 199 240 190 228 q 207 254 207 251 q 199 293 207 272 q 178 333 192 314 q 147 369 164 353 q 108 393 129 385 q 89 397 101 396 q 72 399 76 399 q 49 397 67 399 q 26 394 31 394 q 10 400 18 394 q 28 413 19 403 q 87 435 61 418 q 129 474 113 451 q 154 523 146 497 q 163 572 163 549 q 158 611 163 589 q 139 656 154 633 q 101 694 119 682 q 83 715 83 707 q 97 718 89 718 q 106 715 97 718 q 127 708 115 713 q 151 701 139 704 q 168 699 163 699 q 193 701 176 699 q 215 707 210 704 q 160 783 188 744 q 108 860 133 821 q 90 895 97 876 q 65 932 82 914 l 65 943 q 68 947 67 944 q 74 949 69 949 l 314 949 q 327 931 321 944 q 339 910 333 918 q 349 901 342 904 q 363 892 357 899 q 415 844 386 863 q 469 822 444 826 q 491 818 476 819 q 510 817 506 817 q 541 820 522 817 q 578 830 560 824 q 614 846 597 836 q 638 867 631 856 q 652 890 643 875 q 671 917 661 904 q 690 940 681 931 q 707 950 700 950 l 913 956 q 936 932 936 956 q 931 918 936 929 q 920 894 926 907 q 908 872 914 882 q 903 863 903 863 q 842 778 874 821 q 778 693 810 736 q 785 688 781 690 q 793 685 790 686 q 820 679 804 682 q 840 676 836 676 q 853 678 843 676 q 873 684 863 681 q 892 690 883 688 q 901 692 901 692 q 904 689 906 692 q 908 686 903 686 q 917 685 913 686 q 924 683 921 683 q 850 621 872 657 q 828 543 828 585 q 863 432 828 478 q 953 369 897 386 m 831 660 q 807 665 819 661 q 783 671 794 668 q 778 674 781 672 q 771 676 775 676 l 764 676 l 719 618 l 731 618 l 831 660 m 885 388 q 855 419 868 400 q 833 458 842 438 q 819 500 824 479 q 814 536 814 521 q 822 592 814 561 q 850 647 831 622 q 806 630 829 639 q 763 607 782 621 q 730 575 743 593 q 717 531 717 557 q 750 447 717 486 q 846 397 783 407 q 866 392 856 396 q 885 388 876 389 m 607 821 q 590 814 601 818 q 563 806 578 810 q 534 800 549 803 q 508 797 519 797 q 481 800 497 797 q 449 808 465 803 q 418 819 433 813 q 394 835 403 826 q 422 781 408 810 q 456 731 436 753 q 481 723 463 724 q 504 722 500 722 q 537 728 526 722 q 555 744 547 733 q 573 774 563 756 q 607 821 583 793 m 742 429 q 715 471 726 442 q 703 524 703 500 q 708 560 703 538 q 725 594 714 582 q 710 592 718 593 q 699 588 701 590 q 678 563 690 578 q 656 533 667 547 q 638 506 646 518 q 631 493 631 494 q 638 476 631 483 q 653 465 644 469 q 670 454 663 460 q 679 443 678 449 q 710 435 694 439 q 742 429 726 432 l 742 429 m 532 710 q 520 707 526 708 q 510 706 514 706 q 494 706 504 706 q 472 707 483 706 q 488 684 481 697 q 506 668 494 671 q 519 690 513 679 q 532 710 526 701 m 751 404 l 660 432 l 697 378 q 724 392 710 385 q 751 404 739 399 m 288 606 l 272 629 l 251 629 q 268 617 258 622 q 288 606 278 611 m 264 644 l 225 694 q 195 686 213 690 q 172 682 178 682 q 163 683 168 682 q 156 683 158 683 q 167 676 157 682 q 190 662 178 669 q 215 649 203 654 q 231 643 226 643 q 246 644 235 643 q 264 644 257 644 m 374 489 l 335 544 q 326 506 336 529 q 299 467 317 483 q 340 474 315 471 q 374 489 364 478 m 360 468 q 337 461 347 464 q 317 456 326 458 q 328 446 322 451 q 338 438 333 440 l 360 468 m 317 539 q 312 567 317 558 q 297 582 307 576 q 269 594 286 588 q 231 617 253 601 q 243 580 239 599 q 247 546 247 561 q 240 501 247 522 q 197 447 232 479 l 261 460 q 268 469 258 469 q 292 481 278 468 q 312 509 307 493 q 317 539 317 525 m 231 553 q 214 610 231 581 q 156 660 197 639 q 174 614 169 636 q 178 574 178 592 q 161 497 178 535 q 101 424 144 458 q 117 429 108 426 q 133 433 126 432 q 172 449 154 438 q 202 478 189 461 q 223 514 215 494 q 231 553 231 533 m 329 424 q 309 442 322 435 q 288 451 296 449 l 194 429 q 242 390 222 417 q 267 343 263 363 q 298 383 282 363 q 329 424 314 404 m 260 333 q 257 342 260 338 q 253 350 254 347 q 213 403 238 390 q 163 415 188 415 q 137 413 157 415 q 106 407 117 411 q 140 390 122 403 q 173 363 158 378 q 197 329 188 347 q 210 294 207 311 q 213 283 210 289 q 215 272 215 278 q 228 288 221 279 q 243 307 236 297 q 255 324 250 317 q 260 333 260 331 z "},"Y":{"ha":949,"x_min":42,"x_max":999,"o":"m 413 301 l 410 294 l 407 296 l 410 303 l 413 301 m 999 938 q 971 880 983 910 q 942 824 958 850 q 888 749 917 785 q 835 676 858 714 q 815 634 826 664 q 790 583 803 604 q 748 522 774 557 q 698 454 722 486 q 656 399 674 422 q 638 375 638 376 l 638 238 l 642 208 l 642 58 l 619 -75 q 624 -117 621 -93 q 628 -162 626 -140 q 631 -199 629 -183 q 632 -218 632 -215 q 632 -230 632 -222 q 630 -246 632 -237 q 622 -260 628 -254 q 607 -265 617 -265 q 592 -257 601 -265 q 582 -242 582 -249 l 582 -189 l 589 -115 l 589 -68 q 575 -42 589 -57 q 550 -28 561 -28 q 526 -35 536 -28 q 509 -55 515 -43 q 499 -80 503 -67 q 494 -103 496 -93 q 488 -127 493 -114 q 472 -147 483 -140 l 458 -147 q 451 -121 453 -133 q 448 -96 450 -108 q 440 -72 446 -83 q 418 -51 433 -61 q 404 -27 408 -44 q 400 -4 400 -10 l 400 181 l 410 253 l 410 278 q 365 247 388 274 q 365 253 365 250 q 363 261 365 257 l 363 260 q 365 257 363 260 l 375 333 q 359 405 375 369 q 318 468 343 440 q 263 513 293 496 q 206 529 233 529 q 186 528 201 529 q 160 522 171 526 q 163 542 160 531 q 184 548 172 542 q 208 564 196 554 q 232 583 221 574 q 253 597 243 593 q 231 628 243 613 q 208 660 218 644 q 192 690 200 674 q 176 719 185 706 q 156 748 169 731 q 133 781 143 765 q 115 818 122 799 q 96 856 107 838 q 78 879 89 867 q 57 907 67 892 q 47 927 51 915 q 42 949 43 939 q 47 953 43 950 q 54 956 51 956 q 88 957 68 957 q 113 957 108 957 l 282 954 q 294 951 289 951 q 306 944 299 951 q 333 999 325 968 q 338 1053 340 1031 q 347 1045 340 1049 q 358 1035 354 1042 q 439 963 394 983 q 525 942 483 942 q 569 946 546 942 q 613 960 592 950 q 652 985 635 969 q 678 1025 669 1001 q 686 1017 682 1021 q 693 1008 690 1013 q 681 972 686 994 q 675 933 675 950 q 683 889 675 911 q 699 847 692 867 l 761 951 l 906 951 q 919 950 907 951 q 945 947 931 949 q 974 942 960 944 q 999 938 989 940 m 688 831 q 662 894 668 867 q 657 949 656 922 q 621 891 638 922 q 604 832 604 860 q 613 788 604 813 q 633 757 621 764 l 688 831 m 629 946 q 573 926 599 932 q 521 921 547 921 q 444 935 481 921 q 365 994 407 950 q 377 938 372 967 q 393 894 382 910 q 440 856 410 869 q 499 843 471 843 q 572 865 543 843 q 629 946 600 888 m 619 736 q 611 753 619 742 q 600 771 603 764 q 588 806 593 788 q 586 838 583 825 q 554 789 567 810 q 542 749 542 768 q 596 686 542 704 q 610 715 600 697 q 619 736 619 732 l 619 736 m 563 838 q 546 833 556 835 q 526 828 536 831 q 508 826 515 826 q 499 825 500 825 q 483 826 493 825 q 467 828 474 826 q 454 831 461 829 q 442 836 447 833 q 426 845 435 839 q 408 857 417 851 q 394 865 400 863 q 389 867 389 868 q 392 833 389 851 q 406 799 396 815 q 431 773 415 783 q 469 763 446 763 q 504 769 486 763 q 533 792 522 775 q 540 796 540 794 q 553 817 547 806 q 563 838 558 828 m 361 903 l 346 989 q 337 965 342 978 q 325 940 332 951 q 320 932 324 938 q 317 922 317 926 q 330 901 317 918 q 353 874 343 885 q 358 888 356 881 q 361 903 360 896 m 375 846 q 373 856 372 849 q 371 865 374 863 q 367 863 368 863 q 367 858 367 863 q 370 851 367 854 q 375 846 374 849 m 586 669 q 569 676 579 669 q 550 692 560 682 q 532 713 540 701 q 522 735 524 725 q 513 722 518 731 q 501 705 507 714 q 490 687 494 696 q 486 672 486 678 q 507 643 486 657 l 586 669 m 510 744 q 508 749 510 747 q 507 751 507 750 q 490 748 500 749 q 475 747 479 747 q 463 747 468 747 q 453 747 458 746 q 440 751 447 749 q 418 761 432 754 l 461 686 q 471 692 465 689 q 479 694 476 694 q 495 721 488 707 q 510 744 503 735 m 574 649 l 565 649 q 549 643 557 644 q 533 639 540 642 q 524 623 531 632 q 514 607 517 614 q 524 594 519 600 q 532 585 529 589 l 574 649 m 286 563 l 269 596 l 233 556 l 247 557 q 257 558 254 558 q 264 557 260 557 q 276 560 269 557 q 286 563 282 563 m 407 342 q 406 351 407 343 q 405 370 406 360 q 402 392 404 381 q 396 410 400 403 q 355 472 381 443 q 307 532 329 501 q 300 539 304 535 q 292 544 296 543 l 249 536 q 305 507 278 528 q 351 459 332 486 q 382 403 371 432 q 392 351 393 375 q 390 328 390 340 q 390 307 390 317 q 397 319 394 315 q 402 324 400 322 q 406 330 404 326 q 407 342 407 333 m 165 531 l 165 538 l 161 538 l 161 531 l 165 531 z "},"Z":{"ha":844,"x_min":31,"x_max":864,"o":"m 864 -6 q 861 -22 864 -15 q 844 -31 858 -29 q 833 -31 839 -31 q 822 -35 828 -32 q 811 -47 811 -39 q 808 -62 811 -56 l 788 -153 l 790 -215 q 792 -227 792 -218 q 790 -247 793 -236 q 780 -265 786 -257 q 764 -274 774 -274 q 744 -262 753 -274 q 732 -239 735 -250 l 738 -201 l 738 -154 q 732 -131 738 -143 q 722 -117 726 -119 q 719 -115 721 -117 q 717 -114 718 -114 l 699 -119 q 693 -118 696 -119 q 688 -115 690 -117 q 678 -104 683 -112 q 669 -87 674 -96 q 658 -73 664 -79 q 647 -67 653 -67 l 628 -67 q 617 -75 621 -67 q 610 -99 611 -83 q 597 -126 608 -114 l 579 -126 q 569 -115 575 -124 q 563 -100 563 -106 l 563 -81 q 560 -73 563 -79 q 555 -59 558 -67 q 547 -45 551 -51 q 536 -39 542 -39 l 501 -39 q 481 -72 488 -47 q 475 -108 475 -96 l 488 -214 l 488 -282 q 474 -293 481 -289 q 461 -299 468 -297 q 444 -293 450 -300 q 434 -277 438 -286 q 430 -260 431 -268 q 429 -249 429 -251 l 442 -110 q 427 -78 439 -97 q 396 -61 415 -60 q 370 -69 383 -62 q 349 -86 357 -76 q 338 -114 342 -94 q 329 -149 333 -133 q 322 -165 329 -150 q 307 -179 314 -179 l 290 -179 l 283 -156 l 283 -131 q 276 -111 283 -125 q 263 -92 269 -97 q 255 -88 260 -89 q 247 -85 250 -87 q 242 -74 244 -82 q 235 -61 239 -65 q 224 -55 231 -57 q 214 -53 218 -53 l 171 -56 q 160 -59 167 -56 q 154 -67 154 -62 l 154 -128 l 169 -197 q 164 -217 167 -207 q 147 -228 161 -228 q 134 -222 139 -228 q 129 -214 129 -217 l 129 -174 l 133 -149 l 133 -85 q 128 -72 133 -82 q 121 -56 124 -62 q 103 -43 117 -49 l 82 -51 q 44 -29 58 -40 q 31 1 31 -18 l 31 85 l 38 140 q 46 160 39 149 q 63 185 53 172 q 83 212 72 199 q 104 236 94 225 q 147 274 122 256 q 192 315 171 292 q 208 335 199 322 q 224 358 217 349 q 251 385 235 371 q 281 414 267 399 q 320 459 300 435 q 360 507 340 483 q 424 588 390 543 q 486 668 458 633 q 521 708 499 685 q 561 753 543 732 q 545 755 560 754 q 514 756 531 756 q 482 757 497 757 q 465 757 467 757 q 263 757 335 757 q 155 756 190 757 q 110 755 119 756 q 99 754 101 754 l 58 763 l 58 943 q 65 953 58 950 q 76 957 72 957 l 172 964 l 831 960 q 850 952 838 954 q 864 933 863 950 l 858 794 q 850 775 858 783 q 783 698 813 733 q 728 629 754 663 q 678 565 703 596 q 628 500 654 533 q 599 469 617 488 q 562 429 582 450 q 521 386 542 408 q 482 343 500 364 q 415 257 447 301 q 351 168 382 213 l 838 174 q 849 166 840 172 q 858 156 858 160 l 856 74 l 864 -6 z "},"a":{"ha":1389,"x_min":0,"x_max":0,"o":""},"b":{"ha":1389,"x_min":0,"x_max":0,"o":""},"c":{"ha":1389,"x_min":0,"x_max":0,"o":""},"d":{"ha":1389,"x_min":0,"x_max":0,"o":""},"e":{"ha":1389,"x_min":0,"x_max":0,"o":""},"f":{"ha":1389,"x_min":0,"x_max":0,"o":""},"g":{"ha":1389,"x_min":0,"x_max":0,"o":""},"h":{"ha":1389,"x_min":0,"x_max":0,"o":""},"i":{"ha":1389,"x_min":0,"x_max":0,"o":""},"j":{"ha":1389,"x_min":0,"x_max":0,"o":""},"k":{"ha":1389,"x_min":0,"x_max":0,"o":""},"l":{"ha":1389,"x_min":0,"x_max":0,"o":""},"m":{"ha":1389,"x_min":0,"x_max":0,"o":""},"n":{"ha":1389,"x_min":0,"x_max":0,"o":""},"o":{"ha":1389,"x_min":0,"x_max":0,"o":""},"p":{"ha":1389,"x_min":0,"x_max":0,"o":""},"q":{"ha":1389,"x_min":0,"x_max":0,"o":""},"r":{"ha":1389,"x_min":0,"x_max":0,"o":""},"s":{"ha":1389,"x_min":0,"x_max":0,"o":""},"t":{"ha":1389,"x_min":0,"x_max":0,"o":""},"u":{"ha":1389,"x_min":0,"x_max":0,"o":""},"v":{"ha":1389,"x_min":0,"x_max":0,"o":""},"w":{"ha":1389,"x_min":0,"x_max":0,"o":""},"x":{"ha":1389,"x_min":0,"x_max":0,"o":""},"y":{"ha":1389,"x_min":0,"x_max":0,"o":""},"z":{"ha":1389,"x_min":0,"x_max":0,"o":""},"":{"ha":1389,"x_min":0,"x_max":0,"o":""}}}
